<?xml version="1.0" encoding="UTF-8"?>
<svg version="1.1" xmlns="http://www.w3.org/2000/svg" width="500" height="500">
<path d="M0 0 C165 0 330 0 500 0 C500 165 500 330 500 500 C335 500 170 500 0 500 C0 335 0 170 0 0 Z " fill="#000000" transform="translate(0,0)"/>
<path d="M0 0 C7.21246639 3.79742289 12.24606936 8.59118381 15.0625 16.3125 C16.07777328 22.0684445 15.80191124 26.75690236 12.75 31.8125 C10.25143732 35.35400626 8.24078834 37.91973722 4.0625 39.3125 C-0.52483486 39.76371326 -3.62372426 40.01294917 -7.4375 37.25 C-9.9375 34.3125 -9.9375 34.3125 -10.3125 30.5 C-10.126875 28.9221875 -10.126875 28.9221875 -9.9375 27.3125 C-9.6075 27.3125 -9.2775 27.3125 -8.9375 27.3125 C-8.69 28.42625 -8.4425 29.54 -8.1875 30.6875 C-7.29248229 34.24366367 -7.29248229 34.24366367 -5.25 35.8125 C-1.79077281 36.56044101 0.64097823 36.21290047 4.0625 35.3125 C7.47909295 32.41582336 9.8479519 30.30473239 10.3359375 25.7734375 C10.53980291 19.57906547 10.35347097 15.02846459 6.625 9.93359375 C1.75952063 4.8856589 -4.23142804 3.1964036 -11.0625 2.9375 C-17.24881404 3.01193426 -21.92649806 4.69193824 -26.9375 8.3125 C-33.26068478 14.95547804 -33.52795171 22.18105743 -33.34375 30.86328125 C-32.80570677 39.88127012 -27.89056361 46.97949211 -21.74609375 53.30078125 C-19.95285771 54.51007108 -19.95285771 54.51007108 -17.671875 54.2265625 C-14.10417333 53.0339308 -10.97937363 51.26821879 -7.75 49.375 C-6.3204725 48.55701198 -4.89077867 47.7393146 -3.4609375 46.921875 C-1.1986041 45.61815745 1.06257189 44.31245845 3.32324219 43.00585938 C23.91706888 31.14907698 44.17255931 22.00775493 68.5 27.97265625 C74.58623337 28.7798244 79.54397621 26.88513918 85 24.375 C98.67819559 18.33434832 110.92996254 17.97910635 125.6484375 21.36328125 C126.44507813 21.67652344 127.24171875 21.98976563 128.0625 22.3125 C128.3925 23.3025 128.7225 24.2925 129.0625 25.3125 C131.16127929 26.16051666 131.16127929 26.16051666 133.6875 26.6875 C138.75189527 28.04819241 141.99483959 30.04068619 146.0625 33.3125 C148.35363773 32.17517264 150.63150953 31.01742903 152.90234375 29.83984375 C153.92457031 29.31519531 154.94679688 28.79054688 156 28.25 C157.01964844 27.72277344 158.03929687 27.19554687 159.08984375 26.65234375 C169.54255663 21.94106843 182.53518784 23.61740103 193.0625 27.3125 C203.12885884 31.18808444 212.52524847 35.93616539 221.6796875 41.61328125 C227.45724044 45.19536407 233.31899238 48.6321344 239.1875 52.0625 C240.79625 53.01974976 240.79625 53.01974976 242.4375 53.99633789 C249.74531408 58.25718212 257.09805502 61.48349412 265.0625 64.3125 C265.90071289 64.6314624 266.73892578 64.9504248 267.60253906 65.27905273 C275.9627662 68.42050108 285.2439609 68.04993569 294.0625 68.3125 C294.0625 68.6425 294.0625 68.9725 294.0625 69.3125 C270.85317105 75.03408408 249.95377516 64.37937451 230.62036133 52.72485352 C228.46040145 51.41048389 226.30138025 50.09457043 224.14331055 48.77709961 C212.62870057 41.76700861 200.99008869 35.34573785 188.0625 31.3125 C187.02416016 30.97605469 187.02416016 30.97605469 185.96484375 30.6328125 C176.08633154 27.76549086 166.57635666 29.06041109 157.43359375 33.625 C155.28007983 34.81128623 153.16019864 36.03057306 151.0625 37.3125 C151.495625 38.0859375 151.92875 38.859375 152.375 39.65625 C158.15044198 50.45846555 158.15044198 50.45846555 157.0625 57.3125 C156.15652349 60.19149201 155.15260892 62.99323031 154.03515625 65.796875 C153.19650998 67.96590391 152.56546366 70.04651636 152.0625 72.3125 C159.28758452 76.50304902 167.62621355 76.7508 175.67578125 74.62109375 C180.23208084 72.5703299 182.90432435 69.89862325 185.0625 65.3125 C185.53394777 60.83374614 185.31847338 57.26045342 183.0625 53.3125 C181.22916667 51.97916667 181.22916667 51.97916667 179.0625 51.3125 C178.485 51.10625 177.9075 50.9 177.3125 50.6875 C172.82179209 49.93904868 168.40962372 49.86345876 164.0625 51.3125 C165.58836743 47.42847381 167.43298539 45.38650835 171.0625 43.3125 C176.39131398 42.5001808 180.68180163 42.64680614 185.5625 45 C188.95863575 48.14142557 190.81644432 50.10825117 191.34375 54.83203125 C191.61212445 63.00626973 189.71376956 69.62749105 184.09765625 75.7265625 C178.02314192 80.46025313 170.55088991 81.75917033 163.04077148 81.00952148 C157.60033492 80.29581248 153.70935255 79.22387882 149.0625 76.3125 C145.48479761 76.471509 142.58696798 77.48162972 139.3125 78.8125 C130.67439289 82.12350121 122.60651484 81.90308292 114.0625 78.3125 C108.61325517 75.06313549 104.79022096 70.44642057 103.0625 64.3125 C102.33746009 58.6317749 102.27610059 53.97267654 104.75 48.75 C108.84869851 44.42975022 111.54767658 43.12502985 117.5 42.875 C122.63817784 43.02061638 125.32650884 43.77313995 129.0625 47.3125 C129.9375 49.5625 129.9375 49.5625 130.0625 51.3125 C129.5675 51.1475 129.0725 50.9825 128.5625 50.8125 C123.14672273 49.72934455 119.4966667 49.51574072 114.6875 52.1875 C111.17267383 54.72876132 111.17267383 54.72876132 109.76171875 58.51953125 C109.63284108 65.4801837 109.63284108 65.4801837 113.0625 71.3125 C117.76855491 75.36189608 122.04197927 75.69121015 128.125 75.75 C128.80973389 75.7600708 129.49446777 75.7701416 130.19995117 75.78051758 C134.86081183 75.70119575 138.06370369 74.66436616 142.0625 72.3125 C141.46263534 68.75751259 140.47857873 65.78043095 139 62.5 C137.1699789 57.9451313 135.95641401 54.18476307 137.0625 49.3125 C138.22806871 46.61434959 139.52283481 44.07018535 140.96875 41.51171875 C142.28515207 39.27417473 142.28515207 39.27417473 142.0625 36.3125 C128.57352114 29.07046627 118.00713841 27.44784448 103.09375 31.94140625 C88.58658492 36.67736184 75.65889322 44.93782465 62.66601562 52.75683594 C44.8747516 63.38754996 29.44568511 71.27154651 8.0625 70.3125 C8.0625 69.6525 8.0625 68.9925 8.0625 68.3125 C9.5165625 68.20035156 9.5165625 68.20035156 11 68.0859375 C34.00359427 65.97993379 52.90574123 53.95895583 72.25 42.125 C85.58616201 33.96878067 99.71103543 25.92224564 115.4375 24.1875 C116.17355469 24.10113281 116.90960938 24.01476562 117.66796875 23.92578125 C119.46549182 23.71568115 121.26391342 23.51329233 123.0625 23.3125 C99.22234121 22.11047519 81.47104045 33.2035853 61.64297485 44.94961548 C52.30414835 50.48095127 42.9457209 55.7979423 33.0625 60.3125 C31.34353516 61.09947266 31.34353516 61.09947266 29.58984375 61.90234375 C16.35781663 67.19222392 1.46041322 68.21794875 -12.12109375 63.87109375 C-18.1501408 62.67531881 -23.45579057 64.69304061 -29.0625 66.8125 C-36.08700365 69.45629568 -41.74957093 70.46213635 -49.25 70.375 C-49.99056641 70.37048828 -50.73113281 70.36597656 -51.49414062 70.36132812 C-53.30862899 70.34962175 -55.12307534 70.33168898 -56.9375 70.3125 C-56.9375 69.6525 -56.9375 68.9925 -56.9375 68.3125 C-55.88433594 68.16554688 -54.83117188 68.01859375 -53.74609375 67.8671875 C-44.51816779 66.46927778 -36.36670276 64.26434167 -27.81640625 60.51953125 C-24.9375 59.3125 -24.9375 59.3125 -22.9375 59.3125 C-22.9375 58.6525 -22.9375 57.9925 -22.9375 57.3125 C-23.535625 57.04695313 -24.13375 56.78140625 -24.75 56.5078125 C-31.92773402 52.58569356 -35.29206878 44.42607804 -38.1875 37.1875 C-40.25782401 26.49082595 -39.7291911 17.42915364 -33.6171875 8.3515625 C-25.90474991 -1.63667634 -11.61629011 -4.90773415 0 0 Z " fill="#C38B1D" transform="translate(102.9375,320.6875)"/>
<path d="M0 0 C-0.66 7.59 -1.32 15.18 -2 23 C-2.66 22.67 -3.32 22.34 -4 22 C-4.268125 20.7625 -4.53625 19.525 -4.8125 18.25 C-6.11331808 12.65648225 -9.08753681 10.20568331 -13.875 7.1875 C-20.56157032 4.60438785 -29.73229093 4.65721219 -36.2890625 7.3515625 C-40.94079975 10.18014048 -43.50139232 13.25487312 -45 18.5 C-45 22.61240714 -44.07978069 24.48494208 -42 28 C-40.02011922 29.95831154 -40.02011922 29.95831154 -37.5625 31.5625 C-36.11230469 32.56796875 -36.11230469 32.56796875 -34.6328125 33.59375 C-28.36382802 37.77547628 -22.02843055 41.85739701 -15.703125 45.953125 C-14.88650391 46.48228516 -14.06988281 47.01144531 -13.22851562 47.55664062 C-11.39800136 48.74222348 -9.56634605 49.92604442 -7.734375 51.109375 C-0.68468549 55.82358455 5.94574585 61.3888352 8.5625 69.74609375 C10.45135157 79.47705228 8.95323059 88.57600029 3.75 97.03125 C-2.30452444 104.87461121 -11.54236506 108.9190823 -21 111 C-24.61720006 111.38810304 -28.1772241 111.43074496 -31.8125 111.375 C-32.77373779 111.36484863 -33.73497559 111.35469727 -34.7253418 111.34423828 C-45.79333937 111.10381196 -56.52038635 109.90332923 -65 102 C-67.72766526 93.81700423 -66.39325159 85.41442796 -62.875 77.73046875 C-62.58625 77.15941406 -62.2975 76.58835937 -62 76 C-61.34 76 -60.68 76 -60 76 C-59.90203125 76.6290625 -59.8040625 77.258125 -59.703125 77.90625 C-58.11040704 87.02318728 -55.59928235 93.57502654 -48.265625 99.5234375 C-41.6909847 103.80828928 -33.71369331 105.08660386 -26 104 C-19.44640138 102.15857099 -14.74997293 99.8499621 -10.75 94.25 C-9.28592652 89.85777956 -9.33844151 85.69524363 -11 81.4375 C-17.80786795 73.14041093 -27.23923566 67.67154783 -36.125 61.875 C-38.1511734 60.54954288 -40.17607868 59.22226944 -42.19821167 57.89065552 C-43.44681669 57.06875028 -44.69773908 56.25034972 -45.95144653 55.43624878 C-54.59127559 49.75842175 -61.59706798 43.48552153 -64 33 C-64.58825753 24.02907263 -63.14298965 16.46600867 -57.828125 9.07421875 C-43.25643912 -7.45904023 -19.28265114 -2.04319482 0 0 Z " fill="#D1B048" transform="translate(279,111)"/>
<path d="M0 0 C7.20014795 4.00008219 11.9162345 9.22639031 14.25 17.25 C15.58482263 28.6896641 14.23696205 39.06149394 7.3125 48.5625 C6.30658078 49.80390159 5.28611697 51.03368877 4.25 52.25 C3.75628906 52.85199219 3.26257813 53.45398438 2.75390625 54.07421875 C1.59937795 55.47731405 0.4267991 56.86553047 -0.75 58.25 C0.095625 58.518125 0.94125 58.78625 1.8125 59.0625 C5.25 60.25 5.25 60.25 8.375 61.6875 C17.61197269 65.67803425 27.28637837 66.78395963 37.25 67.25 C34.03110909 70.46889091 30.82625501 70.21282226 26.375 70.5 C17.17858466 70.3622833 8.16262502 68.29455048 -0.1875 64.5 C-6.83830417 61.53518368 -10.41497651 62.27249311 -17.375 64.3125 C-39.77135582 70.07530501 -61.62691276 58.69037586 -80.31494141 47.70458984 C-83.16203531 46.00386942 -85.99357762 44.27874567 -88.82421875 42.55078125 C-109.69898979 29.82107641 -126.92966124 21.44742617 -151.75 22.25 C-144.03071529 17.1038102 -133.73249603 17.04885228 -124.75 18.25 C-117.42123147 19.93262543 -110.15146646 22.45523585 -103.5 25.96484375 C-100.6356501 27.30343909 -99.4278213 27.52204379 -96.375 27 C-95.59898437 26.88269531 -94.82296875 26.76539063 -94.0234375 26.64453125 C-93.27320313 26.51433594 -92.52296875 26.38414062 -91.75 26.25 C-60.55711266 21.5710669 -33.93316484 36.46122344 -8.75 53.25 C-4.98179822 53.35467227 -2.93362115 51.80776091 -0.25 49.375 C6.78337527 41.95770687 9.69154775 32.22659543 9.59765625 22.20703125 C8.88476342 16.14343715 6.09997505 11.1999737 1.9375 6.8125 C-5.44835551 2.51839796 -12.49168393 0.84105973 -20.98828125 2.75390625 C-25.63824316 4.28637957 -28.57441639 6.43929967 -31.75 10.25 C-32.348125 10.95125 -32.94625 11.6525 -33.5625 12.375 C-35.66738546 17.47103847 -35.80177143 23.21334709 -33.98828125 28.44921875 C-32.6534463 30.96588384 -31.13248108 32.93346394 -28.9375 34.75 C-25.57896536 35.51766506 -23.08160098 35.06828796 -19.75 34.25 C-16.8625127 32.32606449 -16.8625127 32.32606449 -14.75 30.25 C-15.05974383 33.14094238 -15.79170446 34.29691751 -17.75 36.5 C-21.8563907 38.89539457 -25.10789107 39.29129498 -29.75 38.25 C-33.91881909 35.98120038 -36.27911171 33.03987713 -38.6875 29 C-40.67708043 21.97795141 -40.85323506 16.54052448 -37.3125 10 C-28.899415 -2.67943616 -13.61229325 -6.28259688 0 0 Z " fill="#E1AF2F" transform="translate(421.75,321.75)"/>
<path d="M0 0 C1.98 0.66 3.96 1.32 6 2 C6 2.66 6 3.32 6 4 C6.64066406 4.15855469 7.28132813 4.31710937 7.94140625 4.48046875 C13.95144511 6.10165658 18.14920406 8.09827283 23 12 C25.29113773 10.86267264 27.56900953 9.70492903 29.83984375 8.52734375 C30.86207031 8.00269531 31.88429688 7.47804688 32.9375 6.9375 C33.95714844 6.41027344 34.97679687 5.88304687 36.02734375 5.33984375 C46.48005663 0.62856843 59.47268784 2.30490103 70 6 C80.06635884 9.87558444 89.46274847 14.62366539 98.6171875 20.30078125 C104.39474044 23.88286407 110.25649238 27.3196344 116.125 30.75 C117.1975 31.3881665 118.27 32.02633301 119.375 32.68383789 C126.68281408 36.94468212 134.03555502 40.17099412 142 43 C142.83821289 43.3189624 143.67642578 43.6379248 144.54003906 43.96655273 C152.9002662 47.10800108 162.1814609 46.73743569 171 47 C171 47.33 171 47.66 171 48 C147.79067105 53.72158408 126.89127516 43.06687451 107.55786133 31.41235352 C105.39790145 30.09798389 103.23888025 28.78207043 101.08081055 27.46459961 C89.56620057 20.45450861 77.92758869 14.03323785 65 10 C63.96166016 9.66355469 63.96166016 9.66355469 62.90234375 9.3203125 C53.02383154 6.45299086 43.51385666 7.74791109 34.37109375 12.3125 C32.21757983 13.49878623 30.09769864 14.71807306 28 16 C28.433125 16.7734375 28.86625 17.546875 29.3125 18.34375 C35.08794198 29.14596555 35.08794198 29.14596555 34 36 C33.09402349 38.87899201 32.09010892 41.68073031 30.97265625 44.484375 C30.13400998 46.65340391 29.50296366 48.73401636 29 51 C36.22508452 55.19054902 44.56371355 55.4383 52.61328125 53.30859375 C57.16958084 51.2578299 59.84182435 48.58612325 62 44 C62.47144777 39.52124614 62.25597338 35.94795342 60 32 C58.16666667 30.66666667 58.16666667 30.66666667 56 30 C55.4225 29.79375 54.845 29.5875 54.25 29.375 C49.75929209 28.62654868 45.34712372 28.55095876 41 30 C42.52586743 26.11597381 44.37048539 24.07400835 48 22 C53.32881398 21.1876808 57.61930163 21.33430614 62.5 23.6875 C65.89613575 26.82892557 67.75394432 28.79575117 68.28125 33.51953125 C68.54962445 41.69376973 66.65126956 48.31499105 61.03515625 54.4140625 C54.96064192 59.14775313 47.48838991 60.44667033 39.97827148 59.69702148 C34.53783492 58.98331248 30.64685255 57.91137882 26 55 C22.42229761 55.159009 19.52446798 56.16912972 16.25 57.5 C7.61189289 60.81100121 -0.45598516 60.59058292 -9 57 C-14.44924483 53.75063549 -18.27227904 49.13392057 -20 43 C-20.72503991 37.3192749 -20.78639941 32.66017654 -18.3125 27.4375 C-14.21380149 23.11725022 -11.51482342 21.81252985 -5.5625 21.5625 C-0.42432216 21.70811638 2.26400884 22.46063995 6 26 C6.875 28.25 6.875 28.25 7 30 C6.505 29.835 6.01 29.67 5.5 29.5 C0.08422273 28.41684455 -3.5658333 28.20324072 -8.375 30.875 C-11.88982617 33.41626132 -11.88982617 33.41626132 -13.30078125 37.20703125 C-13.42965892 44.1676837 -13.42965892 44.1676837 -10 50 C-5.29394509 54.04939608 -1.02052073 54.37871015 5.0625 54.4375 C5.74723389 54.4475708 6.43196777 54.4576416 7.13745117 54.46801758 C11.79831183 54.38869575 15.00120369 53.35186616 19 51 C18.40013534 47.44501259 17.41607873 44.46793095 15.9375 41.1875 C14.1074789 36.6326313 12.89391401 32.87226307 14 28 C15.16556871 25.30184959 16.46033481 22.75768535 17.90625 20.19921875 C19.22265207 17.96167473 19.22265207 17.96167473 19 15 C5.51102114 7.75796627 -5.05536159 6.13534448 -19.96875 10.62890625 C-34.47591508 15.36486184 -47.40360678 23.62532465 -60.39648438 31.44433594 C-78.1877484 42.07504996 -93.61681489 49.95904651 -115 49 C-115 48.34 -115 47.68 -115 47 C-114.030625 46.92523438 -113.06125 46.85046875 -112.0625 46.7734375 C-89.05890573 44.66743379 -70.15675877 32.64645583 -50.8125 20.8125 C-37.47633799 12.65628067 -23.35146457 4.60974564 -7.625 2.875 C-6.88894531 2.78863281 -6.15289062 2.70226562 -5.39453125 2.61328125 C-3.59700818 2.40318115 -1.79858658 2.20079233 0 2 C0 1.34 0 0.68 0 0 Z " fill="#C58B1B" transform="translate(226,342)"/>
<path d="M0 0 C-2.39322241 5.23517403 -6.16098377 7.29888643 -11 10 C-8.69 10.66 -6.38 11.32 -4 12 C-4.5625 13.8125 -4.5625 13.8125 -6 16 C-9.50990464 17.78686054 -12.04124604 19 -16 19 C-16 19.66 -16 20.32 -16 21 C-20.21550316 24.39296596 -23.58395662 25.7994058 -29 26 C-31.4375 25.0625 -31.4375 25.0625 -33 24 C-32.67 22.68 -32.34 21.36 -32 20 C-56.46941289 35.73298106 -73.56277965 59.96007967 -81.875 87.75 C-82.16153442 88.70374512 -82.16153442 88.70374512 -82.45385742 89.67675781 C-85.43204632 100.36852349 -86.36779269 111.1882569 -86.3125 122.25 C-86.30512817 124.0148877 -86.30512817 124.0148877 -86.29760742 125.81542969 C-85.85393666 158.98835097 -71.22644819 189.27317984 -47.83398438 212.53222656 C-25.37580435 234.11595335 4.95495271 245.44651154 35.8125 245.4375 C36.58767975 245.4385675 37.3628595 245.43963501 38.16152954 245.44073486 C51.02762766 245.41518945 62.74313613 244.13382653 75 240 C75.72123047 239.77006348 76.44246094 239.54012695 77.18554688 239.30322266 C108.34995022 229.26783024 133.02586648 206.10312949 147.94702148 177.31079102 C162.35986972 148.5143032 164.60375927 114.32554956 154.64453125 83.71484375 C144.5376422 54.47385451 125.64080327 30.77521885 99 15 C98.22914063 14.5153125 97.45828125 14.030625 96.6640625 13.53125 C92.68378885 11.12911994 89.35675157 9.74170742 84.75 9 C80.11798896 8.23640253 77.86288211 6.8787435 75 3 C74.37890625 0.8359375 74.37890625 0.8359375 74 -1 C75.75328184 -0.79746572 77.50275166 -0.56178019 79.25 -0.3125 C80.22453125 -0.18488281 81.1990625 -0.05726562 82.203125 0.07421875 C85.79491216 1.26312037 86.66119048 3.0679523 89 6 C91.55051797 7.65185776 94.26625864 8.93001327 97 10.25 C104.69444925 14.15650074 111.35317813 18.44719168 118 24 C118.98355469 24.81984375 119.96710938 25.6396875 120.98046875 26.484375 C145.06315658 47.23295628 160.77219491 78.4216369 164 110 C166.23899023 145.04263843 156.15360229 178.82071146 133.07788086 205.45385742 C131.72894539 206.97846603 130.36478262 208.48956076 129 210 C128.28328125 210.80050781 127.5665625 211.60101563 126.828125 212.42578125 C111.53192926 228.61329667 91.29262107 239.17986733 70 245 C69.24444824 245.21027832 68.48889648 245.42055664 67.71044922 245.63720703 C48.74111842 250.70559392 26.90703937 251.72308667 8 246 C6.68857966 245.66372974 5.37599838 245.33196571 4.0625 245.00390625 C-18.70359178 239.10080253 -37.3819746 227.38657658 -54 211 C-54.86367187 210.14921875 -55.72734375 209.2984375 -56.6171875 208.421875 C-79.05440741 185.07598263 -89.44755842 152.94130589 -89.4375 121.0625 C-89.4385675 120.34000061 -89.43963501 119.61750122 -89.44073486 118.87310791 C-89.41420749 106.38491409 -88.03775271 94.86539609 -84 83 C-83.77006348 82.31357422 -83.54012695 81.62714844 -83.30322266 80.91992188 C-77.84719707 65.11945712 -69.72481373 51.69938968 -59 39 C-58.27039063 38.10539062 -57.54078125 37.21078125 -56.7890625 36.2890625 C-48.67932717 26.73223685 -38.66973947 19.40276243 -28 12.9375 C-27.38946777 12.5674585 -26.77893555 12.19741699 -26.14990234 11.81616211 C-23.33994834 10.17154667 -20.71814431 8.90897394 -17.61328125 7.90625 C-16.31970703 7.45765625 -16.31970703 7.45765625 -15 7 C-14.731875 6.195625 -14.46375 5.39125 -14.1875 4.5625 C-13 2 -13 2 -11.02734375 0.97265625 C-6.96295399 -0.4614455 -4.19701834 -1.39900611 0 0 Z " fill="#DEB140" transform="translate(213,49)"/>
<path d="M0 0 C0.87672363 0.00862061 1.75344727 0.01724121 2.65673828 0.02612305 C4.8046875 0.30078125 4.8046875 0.30078125 6.8046875 2.30078125 C6.14049805 2.71328125 5.47630859 3.12578125 4.79199219 3.55078125 C1.71164299 5.46544853 -1.36676776 7.38321409 -4.4453125 9.30078125 C-6.11049927 10.33428711 -6.11049927 10.33428711 -7.80932617 11.38867188 C-13.16012392 14.72263955 -18.40537364 18.10059537 -23.5078125 21.80078125 C-36.91686673 30.93332638 -54.83795863 35.53347848 -70.8828125 32.8515625 C-72.67171865 32.40114149 -74.43833793 31.86301311 -76.1953125 31.30078125 C-75.04830438 27.8597569 -74.6626353 27.71232003 -71.6171875 26.1015625 C-70.87500977 25.70106689 -70.13283203 25.30057129 -69.36816406 24.88793945 C-68.56862305 24.46730225 -67.76908203 24.04666504 -66.9453125 23.61328125 C-65.28770724 22.71995812 -63.63146312 21.8241049 -61.9765625 20.92578125 C-61.15929687 20.48234375 -60.34203125 20.03890625 -59.5 19.58203125 C-56.40811039 17.86315025 -53.43360771 16.00685445 -50.4453125 14.11328125 C-33.5781187 3.63228284 -19.79891125 -0.19567066 0 0 Z " fill="#050300" transform="translate(168.1953125,349.69921875)"/>
<path d="M0 0 C1.4859668 -0.00386719 1.4859668 -0.00386719 3.00195312 -0.0078125 C4.56139648 0.00378906 4.56139648 0.00378906 6.15234375 0.015625 C7.16490234 0.00789063 8.17746094 0.00015625 9.22070312 -0.0078125 C26.26083407 0.03613368 39.42661762 7.14522342 53.66748047 15.79638672 C56.3140641 17.40162158 58.96873461 18.99287161 61.625 20.58203125 C66.45079145 23.4696435 71.27183171 26.36505407 76.08984375 29.265625 C75.75984375 29.925625 75.42984375 30.585625 75.08984375 31.265625 C62.95156404 35.31171824 46.98011372 33.29305874 35.51953125 28.01171875 C30.21276138 25.30998056 25.10634715 22.47275277 20.08984375 19.265625 C18.27095732 18.11438742 16.45193382 16.96336638 14.6328125 15.8125 C9.90762003 12.81690629 5.19356384 9.80437779 0.48657227 6.78027344 C-1.95673251 5.23619043 -4.42614397 3.74315783 -6.91015625 2.265625 C-4.38294316 -0.26158809 -3.49713129 0.00880652 0 0 Z " fill="#040300" transform="translate(331.91015625,349.734375)"/>
<path d="M0 0 C-2.39322241 5.23517403 -6.16098377 7.29888643 -11 10 C-8.69 10.66 -6.38 11.32 -4 12 C-4.5625 13.8125 -4.5625 13.8125 -6 16 C-9.50990464 17.78686054 -12.04124604 19 -16 19 C-16 19.66 -16 20.32 -16 21 C-20.21550316 24.39296596 -23.58395662 25.7994058 -29 26 C-31.4375 25.0625 -31.4375 25.0625 -33 24 C-32.67 22.68 -32.34 21.36 -32 20 C-59.29176061 37.54765243 -76.15486056 64.88880326 -84 96 C-84.35047961 97.66314549 -84.69224798 99.32842063 -85 101 C-86.485 101.495 -86.485 101.495 -88 102 C-84.50326436 78.93381404 -75.48322842 58.3431916 -60.29931641 40.52539062 C-59.1119874 39.13147262 -57.95100955 37.71521878 -56.79296875 36.296875 C-48.68820362 26.73355288 -38.67069547 19.40334171 -28 12.9375 C-27.38946777 12.5674585 -26.77893555 12.19741699 -26.14990234 11.81616211 C-23.33994834 10.17154667 -20.71814431 8.90897394 -17.61328125 7.90625 C-16.31970703 7.45765625 -16.31970703 7.45765625 -15 7 C-14.731875 6.195625 -14.46375 5.39125 -14.1875 4.5625 C-13 2 -13 2 -11.02734375 0.97265625 C-6.96295399 -0.4614455 -4.19701834 -1.39900611 0 0 Z " fill="#E8CE6B" transform="translate(213,49)"/>
<path d="M0 0 C1.30066406 -0.01417969 2.60132813 -0.02835937 3.94140625 -0.04296875 C7.23419622 0.17409785 8.64946251 0.64504319 11.4375 2.1875 C9.53291016 2.29964844 9.53291016 2.29964844 7.58984375 2.4140625 C-3.86763358 3.22853799 -13.20413079 5.01468899 -23.5625 10.1875 C-24.3035498 10.55439941 -25.04459961 10.92129883 -25.80810547 11.29931641 C-34.73319262 15.76644636 -43.40504945 20.60341169 -51.93188477 25.78564453 C-85.91369535 46.42281309 -85.91369535 46.42281309 -101.8125 46.25 C-102.89015625 46.24097656 -103.9678125 46.23195313 -105.078125 46.22265625 C-105.89796875 46.21105469 -106.7178125 46.19945312 -107.5625 46.1875 C-107.5625 46.8475 -107.5625 47.5075 -107.5625 48.1875 C-112.53343824 47.77596263 -117.00758386 47.39149168 -121.5625 45.1875 C-121.5625 44.5275 -121.5625 43.8675 -121.5625 43.1875 C-120.50933594 43.22230469 -119.45617187 43.25710938 -118.37109375 43.29296875 C-91.75951277 43.92131935 -71.61499137 32.99053639 -49.56396484 19.31713867 C-34.36088865 9.89581388 -18.37168725 0.0912199 0 0 Z " fill="#0F0B02" transform="translate(218.5625,342.8125)"/>
<path d="M0 0 C18.45736757 1.99353318 33.51686635 11.22769277 49.04296875 20.66796875 C69.56301607 33.13337462 87.71315462 43.73021656 112.38793945 42.92626953 C114.25824083 42.88103594 116.13034905 42.93307737 118 43 C118.66 43.66 119.32 44.32 120 45 C100.33670557 50.74257576 80.80944034 43.80068006 63.5 34.38867188 C52.12690672 28.07127396 40.83003197 21.5858071 29.74609375 14.7734375 C25.44733404 12.18743784 21.09354066 10.10535754 16.4375 8.25 C15.70732666 7.95343506 14.97715332 7.65687012 14.22485352 7.35131836 C9.21028064 5.36055804 4.33879074 3.8736203 -1 3 C-0.67 2.01 -0.34 1.02 0 0 Z " fill="#0E0B02" transform="translate(285,343)"/>
<path d="M0 0 C0.66 0.33 1.32 0.66 2 1 C1.84015625 1.88945312 1.6803125 2.77890625 1.515625 3.6953125 C-3.22699009 37.21315603 6.1331916 69.36015312 25.79296875 96.47265625 C38.35011639 112.80989369 53.24169676 123.93414723 71.48046875 133.1875 C75 135 75 135 78 137 C77.01 137.66 76.02 138.32 75 139 C59.55708675 131.29552961 46.63287986 122.88065935 34 111 C33.39800781 110.46246094 32.79601562 109.92492187 32.17578125 109.37109375 C17.49971172 95.72132279 7.05328237 75.16254114 2 56 C1.80680176 55.3208252 1.61360352 54.64165039 1.41455078 53.94189453 C-1.85274708 42.16095196 -2.37155893 30.58512905 -2.375 18.4375 C-2.37690338 17.69510071 -2.37880676 16.95270142 -2.38076782 16.18780518 C-2.38014965 14.06099539 -2.36221812 11.9352278 -2.3359375 9.80859375 C-2.32095215 8.56907959 -2.3059668 7.32956543 -2.29052734 6.05249023 C-2 3 -2 3 0 0 Z " fill="#9A6A29" transform="translate(126,150)"/>
<path d="M0 0 C1.75328184 0.20253428 3.50275166 0.43821981 5.25 0.6875 C6.22453125 0.81511719 7.1990625 0.94273438 8.203125 1.07421875 C11.79491216 2.26312037 12.66119048 4.0679523 15 7 C17.55051797 8.65185776 20.26625864 9.93001327 23 11.25 C30.69444925 15.15650074 37.35317813 19.44719168 44 25 C44.98355469 25.81984375 45.96710938 26.6396875 46.98046875 27.484375 C66.83367775 44.58902393 80.78806926 68.57352572 87 94 C87 94.99 87 95.98 87 97 C85.515 96.505 85.515 96.505 84 96 C83.13326822 93.67544375 82.44997859 91.45065767 81.8125 89.0625 C72.64488984 57.77227845 53.10677067 32.64328415 25 16 C24.22914063 15.5153125 23.45828125 15.030625 22.6640625 14.53125 C18.68378885 12.12911994 15.35675157 10.74170742 10.75 10 C6.11798896 9.23640253 3.86288211 7.8787435 1 4 C0.37890625 1.8359375 0.37890625 1.8359375 0 0 Z " fill="#EED578" transform="translate(287,48)"/>
<path d="M0 0 C3.43440959 1.51677395 6.11248862 3.62478903 9 6 C9.84304688 6.62261719 10.68609375 7.24523437 11.5546875 7.88671875 C16.1380626 11.29212361 16.1380626 11.29212361 18 13 C18 13.66 18 14.32 18 15 C9.91641491 17.69452836 3.49897298 17.8572866 -4.390625 14.48828125 C-9.21248802 11.73808692 -13.08614395 7.89720134 -17 4 C-12.11009452 -1.11217391 -6.83119675 -0.87709193 0 0 Z " fill="#E9BA44" transform="translate(329,285)"/>
<path d="M0 0 C0.598125 0.495 1.19625 0.99 1.8125 1.5 C-2.39942753 8.74451536 -7.81902834 12.60022139 -15.85546875 14.99609375 C-22.39545368 16.40925632 -27.38378905 16.07151443 -33.1875 12.5 C-30.07847662 9.22616092 -26.73535308 6.51914636 -23.125 3.8125 C-22.08214844 3.02488281 -21.03929687 2.23726563 -19.96484375 1.42578125 C-14.18087797 -2.58476042 -6.34941604 -2.98796049 0 0 Z " fill="#E9B944" transform="translate(185.1875,286.5)"/>
<path d="M0 0 C2.47247225 1.10561495 3.95197328 2.17953181 6 4 C4.76170507 7.6822981 2.72615376 9.05825415 -0.64599609 10.84228516 C-1.25781738 11.14183105 -1.86963867 11.44137695 -2.5 11.75 C-3.1285791 12.05856934 -3.7571582 12.36713867 -4.40478516 12.68505859 C-11.62320808 16.02102616 -17.23409699 16.16175878 -24.625 13.5 C-25.73875 13.005 -26.8525 12.51 -28 12 C-28 11.01 -28 10.02 -28 9 C-10.22005533 -2.37194431 -10.22005533 -2.37194431 0 0 Z " fill="#D4A038" transform="translate(163,271)"/>
<path d="M0 0 C4.7995613 2.44020249 9.37356214 5.23608175 13.921875 8.11230469 C13.921875 9.10230469 13.921875 10.09230469 13.921875 11.11230469 C6.09760238 14.52653274 -0.04428934 15.44179215 -8.203125 12.48730469 C-12.9630269 10.4197223 -16.34247277 7.68553725 -20.078125 4.11230469 C-14.70125869 -1.63537999 -7.44704695 -3.1810929 0 0 Z " fill="#D6A138" transform="translate(350.078125,271.8876953125)"/>
<path d="M0 0 C3.4494884 2.67556472 5.80159102 5.48938896 8.359375 8.98828125 C8.80087891 9.57351563 9.24238281 10.15875 9.69726562 10.76171875 C12.85341662 14.97636449 12.85341662 14.97636449 14.046875 17.36328125 C4.70269386 18.15416806 -1.59745823 17.41541213 -8.953125 11.36328125 C-13.10112525 7.50848684 -15.58868986 3.95746534 -16.953125 -1.63671875 C-11.10399619 -3.33485292 -5.31107828 -2.94357381 0 0 Z " fill="#F8DE7B" transform="translate(309.953125,295.63671875)"/>
<path d="M0 0 C-0.7524669 6.67665076 -5.29876734 10.56077871 -10 15 C-16.09931609 19.79406244 -22.51438092 19.44913714 -30 19 C-23.3852993 7.46613896 -14.77229544 -4.92409848 0 0 Z " fill="#ECBE45" transform="translate(206,294)"/>
<path d="M0 0 C5.16705095 4.60845084 7.64751136 8.42782856 8.3203125 15.24609375 C8.56252369 22.74656696 7.85046711 28.50233674 4 35 C2.86499306 34.11687962 1.74238693 33.21781145 0.625 32.3125 C-0.00148437 31.81363281 -0.62796875 31.31476563 -1.2734375 30.80078125 C-3.95154676 28.00754965 -4.95404226 25.38529747 -5.08203125 21.52734375 C-3.17171717 3.17171717 -3.17171717 3.17171717 0 0 Z " fill="#B67C28" transform="translate(180,237)"/>
<path d="M0 0 C0.33 0 0.66 0 1 0 C7.26107002 19.14657574 7.26107002 19.14657574 4.1640625 27.1640625 C2.73534218 29.7744312 1.1017636 31.8982364 -1 34 C-3.015625 33.91015625 -3.015625 33.91015625 -5 33 C-8.68938922 25.93784825 -9.01244591 17.90510059 -6.8125 10.375 C-5.26286785 6.09682896 -3.16511132 3.24840372 0 0 Z " fill="#B77D28" transform="translate(319,237)"/>
<path d="M0 0 C5.75924629 2.7973482 8.6222716 7.11333098 11.3125 12.75 C12.76002823 19.59286074 12.80835571 26.50567743 10 33 C4.96627156 31.56179187 3.01044111 29.09754485 0 25 C-2.57648297 17.27055109 -0.98763833 7.97165222 0 0 Z " fill="#C58E30" transform="translate(195,249)"/>
<path d="M0 0 C12.70919067 5.01959632 12.70919067 5.01959632 17 10 C9.69602546 13.35264405 3.85509309 15.53054614 -4.0234375 13.046875 C-9.79731606 10.83798199 -13.36422178 9.15068581 -17 4 C-11.716777 -0.56927394 -6.84603507 -1.28786798 0 0 Z " fill="#BE862C" transform="translate(363,255)"/>
<path d="M0 0 C3.43515345 20.12018451 3.43515345 20.12018451 -1.48828125 27.30078125 C-3.64051064 29.71995382 -5.99583744 30.88217207 -9 32 C-12.50701856 26.4448826 -11.53706821 19.29894813 -11 13 C-9.65243388 8.17789853 -5.62770625 0 0 0 Z " fill="#C48D2F" transform="translate(304,250)"/>
<path d="M0 0 C2.42949628 1.10645664 3.95727986 2.23332312 6 4 C4.59510885 8.21467344 2.21030774 8.86104087 -1.59375 10.859375 C-7.01954677 13.4313436 -12.01119678 14.61953137 -18 14 C-21.10264122 12.85822803 -24.05376084 11.49650243 -27 10 C-20.41126428 2.56479476 -9.83173887 -2.1045062 0 0 Z " fill="#BF872C" transform="translate(147,255)"/>
<path d="M0 0 C0.99 0.33 1.98 0.66 3 1 C12.13056164 24.63425214 5.01779283 56.97518815 -4.75 79.3125 C-9.00935894 88.68595242 -14.16176552 99.14951052 -22 106 C-23.485 106.495 -23.485 106.495 -25 107 C-23.56516708 103.80710258 -21.67926997 101.03972115 -19.67431641 98.17944336 C-10.81370213 85.44792939 -4.59496414 72.12663653 -1 57 C-0.70222656 55.94941406 -0.40445312 54.89882812 -0.09765625 53.81640625 C2.11131214 45.01107141 2.2827766 36.42063093 2.3125 27.375 C2.32071777 25.55246704 2.32071777 25.55246704 2.32910156 23.69311523 C2.26584306 15.63583578 1.44544014 7.92468553 0 0 Z " fill="#5B371F" transform="translate(371,144)"/>
<path d="M0 0 C4.99419244 6.22769781 9.69629103 14.25313498 9.125 22.4375 C8.35646592 26.75962287 6.75674572 29.62076332 4 33 C1 32 1 32 -0.09765625 30.43359375 C-3.91896323 22.52797485 -6.0224856 15.76949757 -4 7 C-1.75 1.75 -1.75 1.75 0 0 Z " fill="#A16824" transform="translate(332,224)"/>
<path d="M0 0 C0.66 0 1.32 0 2 0 C6.1043219 6.66952309 7.02338298 12.21205553 6 20 C4.47005606 25.25332793 2.28947776 29.47650041 -2 33 C-5.84766272 28.40762836 -7.5 25.08433808 -7.5 18.9609375 C-6.36950267 12.26627361 -2.92265494 6.0764382 0 0 Z " fill="#A46925" transform="translate(166,224)"/>
<path d="M0 0 C2.27521255 1.42862183 4.03860599 2.58057987 5.6875 4.6875 C5.6875 5.3475 5.6875 6.0075 5.6875 6.6875 C4.27271865 7.33745297 2.85558513 7.98228722 1.4375 8.625 C0.64859375 8.98464844 -0.1403125 9.34429687 -0.953125 9.71484375 C-6.75350866 12.10606152 -12.77412552 12.7973628 -18.828125 10.8984375 C-24.87556138 8.34290793 -24.87556138 8.34290793 -27.3125 4.6875 C-24.81830686 3.67045037 -22.31875963 2.67400645 -19.8125 1.6875 C-19.11640625 1.40132812 -18.4203125 1.11515625 -17.703125 0.8203125 C-11.58673242 -1.55828461 -6.30357807 -2.49764414 0 0 Z " fill="#A96E23" transform="translate(135.3125,239.3125)"/>
<path d="M0 0 C0.72703125 0.28617188 1.4540625 0.57234375 2.203125 0.8671875 C3.97356588 1.56604574 5.73751382 2.28131632 7.5 3 C2.48048222 8.28415222 -1.56039016 9.97850017 -8.8125 10.375 C-14.09136046 10.25708731 -18.9180929 8.58977358 -23.5 6 C-24.16 5.01 -24.82 4.02 -25.5 3 C-16.80505911 -4.24578407 -10.2154042 -4.19966617 0 0 Z " fill="#A86D23" transform="translate(383.5,241)"/>
<path d="M0 0 C2.35556055 2.07003806 4.21595653 4.28205154 6.0625 6.8125 C-1.27627431 10.64867748 -7.63192694 11.91042153 -15.9375 10.8125 C-19.63905269 9.27545578 -22.89620644 7.43298565 -25.9375 4.8125 C-26.2675 3.8225 -26.5975 2.8325 -26.9375 1.8125 C-8.01710901 -3.24095896 -8.01710901 -3.24095896 0 0 Z " fill="#905B27" transform="translate(125.9375,222.1875)"/>
<path d="M0 0 C-1.99074915 4.72431514 -4.52099248 5.7212067 -9 8 C-16.77649291 10.5921643 -24.70964282 9.36478024 -32 6 C-31.08315806 2.69936902 -30.06877946 1.06525231 -27.5625 -1.3125 C-18.70892005 -5.50630103 -9.03549933 -2.41329712 0 0 Z " fill="#905B27" transform="translate(400,224)"/>
<path d="M0 0 C0.66 0 1.32 0 2 0 C3.61072133 2.26387622 5.10213005 4.51718311 6.5625 6.875 C7.1802832 7.85146484 7.1802832 7.85146484 7.81054688 8.84765625 C11.17079112 14.18225022 12.70873244 17.62140803 12 24 C10.5 27.5 10.5 27.5 9 30 C5.16600092 28.52794396 3.82247836 26.58125389 1.8125 23.0625 C1.30332031 22.18722656 0.79414063 21.31195313 0.26953125 20.41015625 C-2.81011933 14.56355807 -2.76148421 8.71278749 -1 2.4375 C-0.67 1.633125 -0.34 0.82875 0 0 Z " fill="#895626" transform="translate(341,207)"/>
<path d="M0 0 C1.27746094 -0.03738281 2.55492188 -0.07476562 3.87109375 -0.11328125 C8.98312735 0.47636072 12.01785375 2.61338912 15.4375 6.375 C16.5625 8.3125 16.5625 8.3125 16.5625 11.3125 C10.05321227 13.21879141 2.36664407 13.55271185 -3.875 10.6875 C-7.6098126 8.51210811 -9.94586471 5.81636212 -12.4375 2.3125 C-12.4375 1.9825 -12.4375 1.6525 -12.4375 1.3125 C-8.2713346 0.32893312 -4.27617385 0.08182004 0 0 Z " fill="#764925" transform="translate(107.4375,201.6875)"/>
<path d="M0 0 C-4.28346451 5.3727304 -8.00034403 9.60505077 -15 11 C-16.83151879 11.09157594 -18.66620016 11.13003791 -20.5 11.125 C-21.90765625 11.12886719 -21.90765625 11.12886719 -23.34375 11.1328125 C-25.7214263 11.01392868 -27.72683096 10.67551722 -30 10 C-29.4237038 6.11000068 -27.63263979 3.85829463 -25 1 C-18.0496312 -3.34958563 -7.75148522 -0.94161209 0 0 Z " fill="#764A25" transform="translate(405,203)"/>
<path d="M0 0 C3.67238096 4.12166161 3.55509498 7.47891916 3.41796875 12.8203125 C2.5735006 19.24458422 -0.10321749 24.22966966 -4.8125 28.625 C-5.8953125 29.305625 -5.8953125 29.305625 -7 30 C-10.34064396 26.10258204 -10.78785458 23.27979914 -10.69921875 18.234375 C-9.29319729 11.73054391 -4.70362304 4.70362304 0 0 Z " fill="#8B5727" transform="translate(157,207)"/>
<path d="M0 0 C1.2375 0.350625 2.475 0.70125 3.75 1.0625 C4.8225 1.371875 5.895 1.68125 7 2 C6.4375 3.8125 6.4375 3.8125 5 6 C1.49009536 7.78686054 -1.04124604 9 -5 9 C-5 9.66 -5 10.32 -5 11 C-9.21550316 14.39296596 -12.58395662 15.7994058 -18 16 C-20.4375 15.0625 -20.4375 15.0625 -22 14 C-20.92542747 9.61216218 -19.96585743 7.69438055 -16.234375 5.01171875 C-5.015625 -1.53255208 -5.015625 -1.53255208 0 0 Z " fill="#14120B" transform="translate(202,59)"/>
<path d="M0 0 C2.87557703 -0.08138426 5.74882262 -0.14067851 8.625 -0.1875 C9.43324219 -0.21263672 10.24148437 -0.23777344 11.07421875 -0.26367188 C17.35612505 -0.34028049 21.40884207 0.88616064 26.375 4.9375 C28 7 28 7 28 11 C19.92022724 12.95873279 14.17555463 11.93107308 7 8 C3.47769603 5.6018356 1.77012922 3.81014362 0 0 Z " fill="#603A20" transform="translate(92,184)"/>
<path d="M0 0 C1.03253906 0.01353516 1.03253906 0.01353516 2.0859375 0.02734375 C3.76577838 0.05067487 5.44543746 0.08653674 7.125 0.125 C3.78388542 6.02631776 -0.30525517 10.07137396 -6.875 12.125 C-10.42578125 12.3203125 -10.42578125 12.3203125 -14.1875 12.25 C-15.44175781 12.23195312 -16.69601562 12.21390625 -17.98828125 12.1953125 C-18.94089844 12.17210937 -19.89351563 12.14890625 -20.875 12.125 C-19.24730862 7.70803748 -17.52283276 5.19249573 -13.875 2.125 C-9.2211355 0.15083882 -4.98467344 -0.12558286 0 0 Z " fill="#55331E" transform="translate(400.875,166.875)"/>
<path d="M0 0 C3.52443028 4.00120998 3.50314713 7.0120297 3.3515625 12.1796875 C2.50301834 18.98689729 -0.99533769 23.55141128 -6 28 C-6.99 27.67 -7.98 27.34 -9 27 C-10.82997414 21.51007757 -10.78418406 16.71917276 -8.375 11.4375 C-7.61386768 10.27116054 -6.81886361 9.12655782 -6 8 C-5.47148437 7.27039063 -4.94296875 6.54078125 -4.3984375 5.7890625 C-2.95548339 3.84004865 -1.49048382 1.91278757 0 0 Z " fill="#704624" transform="translate(148,189)"/>
<path d="M0 0 C1.20366211 0.00483398 1.20366211 0.00483398 2.43164062 0.00976562 C3.68170898 0.02233398 3.68170898 0.02233398 4.95703125 0.03515625 C6.22450195 0.04192383 6.22450195 0.04192383 7.51757812 0.04882812 C9.6015928 0.06060222 11.68557102 0.07853735 13.76953125 0.09765625 C11.61478183 4.89733505 8.24382203 7.82116701 3.55859375 10.23828125 C-0.00404492 11.33601305 -3.35821806 11.31433426 -7.04296875 11.22265625 C-8.08227539 11.20912109 -8.08227539 11.20912109 -9.14257812 11.1953125 C-10.8386927 11.17191782 -12.53462746 11.13605266 -14.23046875 11.09765625 C-13.68462096 7.13027474 -13.40327092 6.26294528 -10.35546875 3.34765625 C-6.70971881 0.72271629 -4.37286591 -0.03101323 0 0 Z " fill="#613B21" transform="translate(393.23046875,183.90234375)"/>
<path d="M0 0 C15.33122229 -0.58138062 15.33122229 -0.58138062 22 3 C24.90237596 5.90237596 26.13792525 8.05789121 27 12 C11.07946039 12.8049711 11.07946039 12.8049711 5 8 C3.01150723 6.08479321 1.59378536 4.29106646 0 2 C0 1.34 0 0.68 0 0 Z " fill="#6B4B27" transform="translate(92,167)"/>
<path d="M0 0 C5.43541696 1.81180565 8.19087322 7.21384858 11 12 C12.60727621 16.7773878 12.44545433 19.89604796 10.5625 24.5625 C10.046875 25.366875 9.53125 26.17125 9 27 C4.50942081 25.50314027 2.3347533 21.89704176 0 18 C-1.12589491 14.62231526 -1.13294275 11.99187928 -1.125 8.4375 C-1.12757813 7.28121094 -1.13015625 6.12492188 -1.1328125 4.93359375 C-1 2 -1 2 0 0 Z " fill="#714624" transform="translate(350,190)"/>
<path d="M0 0 C0.66 0.33 1.32 0.66 2 1 C2.47586481 8.19084606 2.47394667 14.08201291 -2 20 C-4.19910156 22.19910156 -6.50317537 24.14842218 -9 26 C-11 25 -11 25 -12 22 C-12.84011253 15.99919625 -11.12481342 12.87057389 -7.734375 8.15625 C-5.34618483 5.18714871 -2.7917049 2.59229741 0 0 Z " fill="#5A361F" transform="translate(143,169)"/>
<path d="M0 0 C12.25201381 9.56962025 12.25201381 9.56962025 13.40625 16.40625 C13.451995 19.9286149 13.11869009 22.64392973 12 26 C6.38215338 24.67815374 3.89595219 20.65452135 1 16 C-1.19321492 11.21480381 -1.25875286 7.17505718 -1 2 C-0.67 1.34 -0.34 0.68 0 0 Z " fill="#5A361F" transform="translate(355,169)"/>
<path d="M0 0 C-1.89982653 5.54116071 -4.46736289 9.36962605 -9.625 12.25 C-14.26705501 14.4221314 -18.93003514 14.79221456 -24 15 C-23.72690064 11.08557587 -23.25007787 9.2973899 -20.6875 6.25 C-16.93613182 3.10931966 -13.78516981 1.79410274 -9 0.875 C-7.7315625 0.62363281 -7.7315625 0.62363281 -6.4375 0.3671875 C-4 0 -4 0 0 0 Z " fill="#A78742" transform="translate(404,149)"/>
<path d="M0 0 C16.10976098 2.03164641 16.10976098 2.03164641 21.3125 7.375 C23.01485352 10.02310547 23.64550202 11.89814271 24 15 C16.32557538 14.6854744 9.93148828 13.68787042 4.171875 8.28515625 C0 3.67464953 0 3.67464953 0 0 Z " fill="#A98842" transform="translate(96,149)"/>
<path d="M0 0 C0.66 0 1.32 0 2 0 C6.18165788 5.88045639 7.06420487 10.8370826 6 18 C4.9236292 20.95074064 3.63488734 23.29221784 2 26 C-1 25 -1 25 -2.6875 22 C-4.88122894 16.33576865 -4.92889337 10.66956999 -2.5625 5.0625 C-1.7890625 3.5465625 -1.7890625 3.5465625 -1 2 C-0.67 1.34 -0.34 0.68 0 0 Z " fill="#070501" transform="translate(249,362)"/>
<path d="M0 0 C-0.22276754 5.45780475 -1.44634929 8.42382917 -5.1875 12.42578125 C-9.42953974 16.11013904 -14.42117058 18.30264632 -20 19 C-19.52876155 14.19336778 -18.93703545 10.867701 -16 7 C-13.62872919 5.54227466 -11.4420785 4.34169538 -8.9375 3.1875 C-8.30005859 2.87619141 -7.66261719 2.56488281 -7.00585938 2.24414062 C-2.32522321 0 -2.32522321 0 0 0 Z " fill="#D5B54E" transform="translate(398,132)"/>
<path d="M0 0 C7.20925133 2.05263406 14.12393758 4.49479892 19 10.4375 C20.17394956 13.44574574 20.22340438 15.79787055 20 19 C12.82590427 16.99906174 6.76872848 14.59934702 2.125 8.5625 C0.8698695 5.70359164 0.35966762 3.0931415 0 0 Z " fill="#D7B64F" transform="translate(101,132)"/>
<path d="M0 0 C12.44497608 7.88995215 12.44497608 7.88995215 15 13 C15.06996014 14.70702735 15.08440154 16.41668003 15.0625 18.125 C15.05347656 19.03507812 15.04445313 19.94515625 15.03515625 20.8828125 C15.02355469 21.58148438 15.01195312 22.28015625 15 23 C9.52805334 21.22966431 5.50848886 18.13269114 2.1875 13.4375 C-0.04910056 8.84658306 -0.09837413 5.11545462 0 0 Z " fill="#A58441" transform="translate(354,149)"/>
<path d="M0 0 C0.34549588 5.75826466 0.41066128 10.09717441 -3 15 C-9.43962848 21.47987616 -9.43962848 21.47987616 -14 23 C-15 22 -15 22 -15.3125 18.3125 C-15.20719871 13.75214418 -14.06217462 11.49962814 -11 8 C-1.85090909 0 -1.85090909 0 0 0 Z " fill="#A38340" transform="translate(145,149)"/>
<path d="M0 0 C3.71424647 1.32792529 6.57638521 2.95583095 9.6875 5.375 C10.45449219 5.96023437 11.22148437 6.54546875 12.01171875 7.1484375 C15.11264382 10.03613589 15.96252528 12.02565725 16.125 16.25 C16.08375 17.1575 16.0425 18.065 16 19 C13.53435052 19.91361119 12.44306753 20.19903424 10 19.1015625 C4.6974246 15.1867705 1.82824355 11.37541341 0 5 C-0.25 1.9375 -0.25 1.9375 0 0 Z " fill="#DBBA50" transform="translate(350,128)"/>
<path d="M0 0 C6.28322354 3.33395535 13.26561773 7.07818207 16 14 C16.0777346 16.33203812 16.08967728 18.66839059 16 21 C10.45783363 19.92373108 5.87067652 16.61375081 2.59375 12.03515625 C0.39981228 7.952865 -0.47063848 4.70638483 0 0 Z " fill="#EFCE54" transform="translate(108,115)"/>
<path d="M0 0 C0 4.10248388 -2.13853298 6.28907725 -4.4375 9.5 C-14.7234012 24.45294246 -21.68997642 41.13966443 -25 59 C-26.485 59.495 -26.485 59.495 -28 60 C-25.08931291 40.79967814 -17.88912076 13.86104218 -1.83203125 1.3046875 C-1.22746094 0.87414062 -0.62289062 0.44359375 0 0 Z " fill="#E9C952" transform="translate(153,91)"/>
<path d="M0 0 C-0.53182044 7.71139631 -2.68838958 12.0620966 -8.5 17.3125 C-10.94675216 19.43116494 -12.80961724 20.40530146 -16 21 C-16.29993 16.651015 -16.42019679 13.93589285 -14.625 9.9375 C-11.24485822 6.15496039 -5.3893746 0 0 0 Z " fill="#F1D055" transform="translate(392,115)"/>
<path d="M0 0 C0.51792056 6.08556654 -0.60622411 10.8533948 -4 16 C-6.48795689 18.31702855 -9.11227761 20.21269609 -12 22 C-12.66 21.67 -13.32 21.34 -14 21 C-14.42216258 14.87864266 -14.12743454 11.84973558 -10 7 C-2.81541582 0 -2.81541582 0 0 0 Z " fill="#F4D557" transform="translate(384,99)"/>
<path d="M0 0 C0.31646072 5.27434536 -0.07078192 8.55892743 -3 13 C-6.51336085 16.71288505 -9.68647289 19.67796805 -15 20 C-15.70703764 13.28314239 -15.70703764 13.28314239 -13.9453125 10.0859375 C-11.03173806 6.51090292 -4.98859501 0 0 0 Z " fill="#E0BE51" transform="translate(149,128)"/>
<path d="M0 0 C1.10408203 0.03383789 1.10408203 0.03383789 2.23046875 0.06835938 C4.02953842 0.12677073 5.82754753 0.21643663 7.625 0.3125 C3.75330536 5.16041953 0.75434656 8.57834341 -5.375 10.3125 C-9.40106407 10.61877727 -13.34703389 10.55417797 -17.375 10.3125 C-13.29647392 2.38203262 -8.60097238 -0.5054821 0 0 Z " fill="#F8DE7B" transform="translate(193.375,302.6875)"/>
<path d="M0 0 C0 6.26701349 -7.31175856 11.3065237 -11.51953125 15.52734375 C-22.28986197 25.74866211 -34.31275681 33.32198681 -48 39 C-47.89453125 37.19921875 -47.89453125 37.19921875 -47 35 C-44.26171875 33.39453125 -44.26171875 33.39453125 -40.6875 31.8125 C-29.2844824 26.4846692 -20.17151427 18.5073214 -11 10 C-9.46540401 8.6007361 -7.92738423 7.20530702 -6.38891602 5.81030273 C-4.25646748 3.87662137 -2.12835789 1.93818143 0 0 Z " fill="#BE8B30" transform="translate(348,249)"/>
<path d="M0 0 C9.86221924 6.90110627 9.86221924 6.90110627 13 12 C13.39061195 15.37853972 13.3008401 18.6172202 13 22 C7.43774461 20.65157445 4.26557159 16.43310121 1 12 C0.03929566 9.11788698 -0.10581883 7.30149956 -0.0625 4.3125 C-0.05347656 3.50425781 -0.04445313 2.69601563 -0.03515625 1.86328125 C-0.02355469 1.24839844 -0.01195313 0.63351563 0 0 Z " fill="#F8D859" transform="translate(116,99)"/>
<path d="M0 0 C8.75 8.5 8.75 8.5 11 13 C10.91348369 14.54613014 10.75997364 16.08909387 10.5625 17.625 C10.46066406 18.44226563 10.35882813 19.25953125 10.25390625 20.1015625 C10.17011719 20.72804688 10.08632812 21.35453125 10 22 C4.84292885 19.67383174 1.91740516 16.09692608 -0.3125 11 C-1.19377557 7.15443389 -1.80829736 3.61659471 0 0 Z " fill="#EFD15D" transform="translate(126,86)"/>
<path d="M0 0 C1.74676702 4.12872205 0.12548674 7.65197305 -1.3125 11.625 C-1.57740234 12.36484131 -1.84230469 13.10468262 -2.11523438 13.86694336 C-6.33836967 25.11092298 -12.4721665 38.33994146 -21 47 C-23.18359375 47.72094727 -23.18359375 47.72094727 -25 48 C-23.56509188 44.80693523 -21.67879486 42.03951026 -19.67431641 39.17871094 C-11.85380104 27.94608797 -6.0491141 15.88166708 -1.69140625 2.90625 C-1 1 -1 1 0 0 Z " fill="#855425" transform="translate(371,203)"/>
<path d="M0 0 C2.76213965 2.37485552 2.97925681 2.79602527 3.375 6.6875 C3.1772081 11.7924147 1.92868282 16.92115209 -1.60546875 20.73046875 C-2.06566406 21.14941406 -2.52585937 21.56835938 -3 22 C-3.99 21.67 -4.98 21.34 -6 21 C-7.6429545 14.42818199 -7.04012245 11.32431872 -3.5625 5.4375 C-2.39709698 3.61071367 -1.21662469 1.79308027 0 0 Z " fill="#F2D76C" transform="translate(362,74)"/>
<path d="M0 0 C0.66 0 1.32 0 2 0 C2.58043332 7.31345985 1.51469843 12.10648826 -3 18 C-5.8125 20.0625 -5.8125 20.0625 -8 21 C-9.51961507 19.48038493 -9.35291515 18.11802178 -9.5 16 C-9.47770488 9.0327759 -4.67273484 4.67273484 0 0 Z " fill="#F5D760" transform="translate(372,87)"/>
<path d="M0 0 C10.96618299 3.08639427 10.96618299 3.08639427 14.6875 6.375 C16.14211658 9.28423317 16.69960344 11.77073698 17 15 C10.55655387 14.04064246 6.59315726 12.70518548 2 8 C-0.05326875 4.92009688 0 3.90161828 0 0 Z " fill="#F5D456" transform="translate(343,112)"/>
<path d="M0 0 C3.80366506 3.62519397 7.43295359 7.86423333 8.390625 13.16015625 C8.47388275 16.87206448 8.07457129 19.88814307 6 23 C1.70593898 19.04494379 -0.74745861 16.09470215 -1.23046875 10.17578125 C-1.20919922 8.75845703 -1.20919922 8.75845703 -1.1875 7.3125 C-1.18105469 6.35988281 -1.17460937 5.40726562 -1.16796875 4.42578125 C-1 2 -1 2 0 0 Z " fill="#F6DA6D" transform="translate(136,74)"/>
<path d="M0 0 C0.33 0.66 0.66 1.32 1 2 C-0.83811535 6.86559946 -3.50869343 10.36098395 -8 13 C-10.67450594 13.93005342 -13.20397905 14.46972017 -16 15 C-16.43421101 11.26578534 -16.35245269 9.51044872 -14.1875 6.375 C-9.82046747 3.12113262 -5.16202509 1.61821802 0 0 Z " fill="#F5D456" transform="translate(156,112)"/>
<path d="M0 0 C2.95637747 2.61186736 3.74854955 4.74249363 4.1484375 8.7265625 C3.87706439 12.88285597 1.95115515 16.38240762 0 20 C-1.32 20 -2.64 20 -4 20 C-5.75666663 16.48666675 -5.55611276 12.83362837 -5 9 C-3.62077257 5.79787758 -1.92242327 2.9042323 0 0 Z " fill="#F1D979" transform="translate(351,65)"/>
<path d="M0 0 C3.19377586 2.71470948 5.59132399 6.060227 7 10 C7.17909185 13.12643202 7.01175025 16.02533309 6 19 C5.01 19.66 4.02 20.32 3 21 C-0.49846313 16.82441497 -2.14138295 14.03198243 -2.1875 8.5625 C-2.20167969 7.80066406 -2.21585938 7.03882812 -2.23046875 6.25390625 C-1.97612666 3.76652685 -1.24017196 2.15191894 0 0 Z " fill="#F6DD7B" transform="translate(147,65)"/>
<path d="M0 0 C3.0625 0.3125 3.0625 0.3125 4.9375 1.4375 C6.59104531 4.19340884 6.45615568 6.16325452 6.0625 9.3125 C4.9375 11.1875 4.9375 11.1875 3.0625 12.3125 C-0.08235925 12.70560741 -2.07031671 12.78805213 -4.875 11.25 C-6.5865104 8.12901045 -5.73041991 5.66716116 -4.9375 2.3125 C-2.9375 0.3125 -2.9375 0.3125 0 0 Z " fill="#F9E182" transform="translate(249.9375,305.6875)"/>
<path d="M0 0 C1.03253906 0.01353516 1.03253906 0.01353516 2.0859375 0.02734375 C3.76577838 0.05067487 5.44543746 0.08653674 7.125 0.125 C4.25 5 4.25 5 3.125 6.125 C1.70929877 6.21151611 0.289405 6.23204904 -1.12890625 6.22265625 C-1.98291016 6.21943359 -2.83691406 6.21621094 -3.71679688 6.21289062 C-4.61462891 6.20451172 -5.51246094 6.19613281 -6.4375 6.1875 C-7.33919922 6.18298828 -8.24089844 6.17847656 -9.16992188 6.17382812 C-11.40501314 6.16200225 -13.63997437 6.1455222 -15.875 6.125 C-14.20410156 2.28027344 -14.20410156 2.28027344 -11.2421875 0.8828125 C-7.44311723 0.02780133 -3.86707238 -0.09742624 0 0 Z " fill="#694A26" transform="translate(400.875,166.875)"/>
<path d="M0 0 C6.93 0 13.86 0 21 0 C21.66 1.98 22.32 3.96 23 6 C8.12793734 6.75195822 8.12793734 6.75195822 1 2 C0.67 1.34 0.34 0.68 0 0 Z " fill="#55331E" transform="translate(96,173)"/>
<path d="M0 0 C-2.23823817 4.47647634 -4.59386842 6.63374415 -9 9 C-11.97126412 9.8666187 -14.95863516 10.44149482 -18 11 C-19.33572797 11.3236042 -20.66991384 11.65393686 -22 12 C-21.67 11.01 -21.34 10.02 -21 9 C-20.030625 8.71125 -19.06125 8.4225 -18.0625 8.125 C-17.051875 7.75375 -16.04125 7.3825 -15 7 C-14.5978125 5.7934375 -14.5978125 5.7934375 -14.1875 4.5625 C-13 2 -13 2 -11.02734375 0.97265625 C-6.96295399 -0.4614455 -4.19701834 -1.39900611 0 0 Z " fill="#F6E4A8" transform="translate(213,49)"/>
<path d="M0 0 C0.66 0 1.32 0 2 0 C4.95324363 5.58961563 6.91117022 9.6294326 5 16 C3.44140625 17.6953125 3.44140625 17.6953125 2 19 C-0.9701637 13.89503113 -2.70052798 10.07124247 -2 4 C-1 1.5625 -1 1.5625 0 0 Z " fill="#F6E08B" transform="translate(157,58)"/>
<path d="M0 0 C2.24688791 1.77135608 2.94459771 2.64911881 3.3984375 5.5234375 C3.32065029 14.98754756 3.32065029 14.98754756 0 19 C-1.32 18.34 -2.64 17.68 -4 17 C-4.57374185 10.11509775 -3.4753869 5.97332123 0 0 Z " fill="#F6E08B" transform="translate(341,57)"/>
<path d="M0 0 C3 1 3 1 4.203125 2.78125 C5.10928889 5.30429456 5.09416787 6.85534163 4.75 9.5 C4.61851562 10.62921875 4.61851562 10.62921875 4.484375 11.78125 C3.97595134 14.1101584 3.15218067 15.92229716 2 18 C-1 17 -1 17 -2.25 15.4375 C-3.85352959 10.22602884 -2.2504445 4.80094826 0 0 Z " fill="#F2DE97" transform="translate(330,51)"/>
<path d="M0 0 C-1.35720559 4.44176375 -2.99386169 6.61336441 -7 9 C-9.99445567 9.60291054 -12.95094947 9.86714377 -16 10 C-15.875 7.75 -15.875 7.75 -15 5 C-9.95788554 0.96630843 -6.31522061 -0.17542279 0 0 Z " fill="#F3D45A" transform="translate(164,99)"/>
<path d="M0 0 C6.59861444 0.41690592 11.15249704 1.15249704 16 6 C16 7.32 16 8.64 16 10 C10.84354246 10.64455719 7.87356711 9.23091314 3.703125 6.4453125 C1.4968173 4.57298716 0.64090284 2.80394994 0 0 Z " fill="#F4D55B" transform="translate(335,99)"/>
<path d="M0 0 C3.34140407 5.01210611 4.66545314 8.90001289 4 15 C2 17.4375 2 17.4375 0 19 C-3.03317819 15.08214484 -3.44868522 11.95208034 -3.3046875 7.16015625 C-2.89612957 4.26358526 -1.77682232 2.29506216 0 0 Z " fill="#F9E49B" transform="translate(168,50)"/>
<path d="M0 0 C-0.33 0.33 -0.66 0.66 -1 1 C-0.34 1.66 0.32 2.32 1 3 C-2.46222615 4.06723961 -5.64039266 4.10173486 -9.25 4.0625 C-10.32765625 4.05347656 -11.4053125 4.04445313 -12.515625 4.03515625 C-13.33546875 4.02355469 -14.1553125 4.01195312 -15 4 C-15 4.66 -15 5.32 -15 6 C-19.97093824 5.58846263 -24.44508386 5.20399168 -29 3 C-29 2.34 -29 1.68 -29 1 C-27.88882813 1.02320313 -26.77765625 1.04640625 -25.6328125 1.0703125 C-18.14482695 1.17722359 -11.08846308 1.25649202 -3.78515625 -0.66015625 C-2 -1 -2 -1 0 0 Z " fill="#382004" transform="translate(126,385)"/>
<path d="M0 0 C0.804375 0.66 1.60875 1.32 2.4375 2 C2.4375 2.33 2.4375 2.66 2.4375 3 C-3.5025 3.33 -9.4425 3.66 -15.5625 4 C-16.2225 2.02 -16.8825 0.04 -17.5625 -2 C-11.6661347 -3.71184799 -5.20666527 -3.39296908 0 0 Z " fill="#EBBD45" transform="translate(310.5625,296)"/>
<path d="M0 0 C4.96196513 4.80190174 4.96196513 4.80190174 5.125 9.9375 C5.13533675 12.70257934 4.89702441 14.30892678 4 17 C2.125 16.75 2.125 16.75 0 16 C-1.97322582 12.98330561 -2.1827206 10.96370936 -1.6875 7.4375 C-1.58824219 6.67308594 -1.48898437 5.90867187 -1.38671875 5.12109375 C-1 3 -1 3 0 0 Z " fill="#EFDEA5" transform="translate(318,44)"/>
<path d="M0 0 C1.56035434 0.1195165 3.1191498 0.26097626 4.67578125 0.421875 C5.47306641 0.48761719 6.27035156 0.55335938 7.09179688 0.62109375 C9.05894732 0.78600457 11.02392247 0.97650094 12.98828125 1.171875 C12.32828125 2.491875 11.66828125 3.811875 10.98828125 5.171875 C9.79589844 5.22085937 8.60351562 5.26984375 7.375 5.3203125 C5.80857057 5.39535104 4.24216546 5.4708984 2.67578125 5.546875 C1.89009766 5.5778125 1.10441406 5.60875 0.29492188 5.640625 C-0.84106445 5.69863281 -0.84106445 5.69863281 -2 5.7578125 C-2.69649658 5.7892334 -3.39299316 5.8206543 -4.1105957 5.85302734 C-6.33704614 6.09305753 -6.33704614 6.09305753 -9.01171875 8.171875 C-8.38396308 6.81978586 -7.70752142 5.49023795 -7.01171875 4.171875 C-6.67140625 3.4603125 -6.33109375 2.74875 -5.98046875 2.015625 C-3.64130677 -0.17501876 -3.09183398 -0.07912652 0 0 Z " fill="#F7CE59" transform="translate(191.01171875,297.828125)"/>
<path d="M0 0 C2.69078066 2.69078066 2.95816166 4.62345494 3.375 8.375 C2.9070996 12.89803721 1.43373232 14.16717084 -2 17 C-3.28282363 14.43435275 -3.20391953 12.48966931 -3.25 9.625 C-3.27578125 8.66851562 -3.3015625 7.71203125 -3.328125 6.7265625 C-2.95439914 3.62107853 -2.06626291 2.29463934 0 0 Z " fill="#F8E7AB" transform="translate(180,45)"/>
<path d="M0 0 C1.58294782 -0.05437607 3.16644256 -0.09296271 4.75 -0.125 C5.63171875 -0.14820312 6.5134375 -0.17140625 7.421875 -0.1953125 C10.14811884 0.01122112 11.71962541 0.5159467 14 2 C14.8125 4.0625 14.8125 4.0625 15 6 C14 7 14 7 10.8125 7.3125 C6.36959285 6.94832728 4.39420155 5.82850129 1 3 C0.67 2.01 0.34 1.02 0 0 Z " fill="#F2D565" transform="translate(326,88)"/>
<path d="M0 0 C1.33804688 0.04060547 1.33804688 0.04060547 2.703125 0.08203125 C3.37859375 0.11683594 4.0540625 0.15164062 4.75 0.1875 C3.43253812 3.19529034 2.88182574 4.10361089 0 5.9375 C-3.35772162 7.22893139 -5.69041206 7.44175628 -9.25 7.1875 C-9.25 3.1875 -9.25 3.1875 -7.578125 1.44921875 C-4.81444117 -0.0485495 -3.12005042 -0.12315988 0 0 Z " fill="#F4D766" transform="translate(168.25,87.8125)"/>
<path d="M0 0 C2.77186988 -0.10787818 5.53955537 -0.18723327 8.3125 -0.25 C9.09818359 -0.28351563 9.88386719 -0.31703125 10.69335938 -0.3515625 C11.8293457 -0.37089844 11.8293457 -0.37089844 12.98828125 -0.390625 C13.68477783 -0.41157227 14.38127441 -0.43251953 15.09887695 -0.45410156 C17 0 17 0 20 4 C14.06 4.33 8.12 4.66 2 5 C1.34 3.35 0.68 1.7 0 0 Z " fill="#F7CE59" transform="translate(296,299)"/>
<path d="M0 0 C1.91595968 -0.08133791 3.83291932 -0.13934367 5.75 -0.1875 C7.35101563 -0.23970703 7.35101563 -0.23970703 8.984375 -0.29296875 C12.30027855 0.02917214 13.59016673 0.77148914 16 3 C15.67 3.99 15.34 4.98 15 6 C7.36866359 6.76313364 7.36866359 6.76313364 4.06640625 4.921875 C2.4375 3.5625 2.4375 3.5625 0 1 C0 0.67 0 0.34 0 0 Z " fill="#F7E192" transform="translate(290,61)"/>
<path d="M0 0 C1.50433594 0.01353516 1.50433594 0.01353516 3.0390625 0.02734375 C3.80992187 0.03894531 4.58078125 0.05054687 5.375 0.0625 C4.41552329 2.46119178 3.72721289 3.8190137 1.578125 5.3046875 C-1.03115556 6.20220599 -3.12178938 6.25995291 -5.875 6.1875 C-6.76703125 6.16945313 -7.6590625 6.15140625 -8.578125 6.1328125 C-9.59132812 6.09800781 -9.59132812 6.09800781 -10.625 6.0625 C-7.53801874 0.59012413 -6.22769812 -0.07241509 0 0 Z " fill="#F4DA73" transform="translate(178.625,77.9375)"/>
<path d="M0 0 C1.08667969 0.02707031 2.17335937 0.05414063 3.29296875 0.08203125 C4.54013672 0.13423828 4.54013672 0.13423828 5.8125 0.1875 C4.078125 4.03125 4.078125 4.03125 1.6875 5.4375 C-2.06438545 6.41625273 -5.3139351 6.31880728 -9.1875 6.1875 C-9.1875 3.1875 -9.1875 3.1875 -8.07421875 1.51171875 C-5.35785905 -0.39479458 -3.2767271 -0.10570087 0 0 Z " fill="#F8E292" transform="translate(203.1875,60.8125)"/>
<path d="M0 0 C9.93514711 -0.62638406 9.93514711 -0.62638406 14.1875 1.875 C16 4 16 4 16 6 C6.31808242 6.8610401 6.31808242 6.8610401 2.375 3.5625 C0 1 0 1 0 0 Z " fill="#F9DE75" transform="translate(315,78)"/>
<path d="M0 0 C3.84375 1.7890625 3.84375 1.7890625 5.25 3.6875 C6.46638897 7.43803267 6.79009505 11.41980989 5 15 C1.125 13.125 1.125 13.125 0 12 C-0.07244053 9.98035801 -0.08377188 7.95832876 -0.0625 5.9375 C-0.05347656 4.83277344 -0.04445313 3.72804687 -0.03515625 2.58984375 C-0.02355469 1.73519531 -0.01195312 0.88054688 0 0 Z " fill="#F5E6B5" transform="translate(306,41)"/>
<path d="M0 0 C0 3.3 0 6.6 0 10 C-4.60139641 8.51131293 -7.50227094 6.25370145 -11 3 C-11 2.34 -11 1.68 -11 1 C-9.35422741 0.83273455 -7.70838013 0.66620388 -6.0625 0.5 C-4.68771484 0.36078125 -4.68771484 0.36078125 -3.28515625 0.21875 C-1 0 -1 0 0 0 Z " fill="#886635" transform="translate(369,162)"/>
<path d="M0 0 C3.96 0 7.92 0 12 0 C5.85714286 7.71428571 5.85714286 7.71428571 1 9 C0 8 0 8 -0.09765625 6.15234375 C-0.06510417 4.1015625 -0.03255208 2.05078125 0 0 Z " fill="#886736" transform="translate(130,163)"/>
<path d="M0 0 C1.93681161 -0.08107583 3.8745934 -0.13922475 5.8125 -0.1875 C6.89144531 -0.22230469 7.97039062 -0.25710937 9.08203125 -0.29296875 C12 0 12 0 13.88671875 1.38671875 C15 3 15 3 15 5 C11.52880239 6.7355988 7.70952174 5.75771758 4 5 C1.4375 3.5625 1.4375 3.5625 0 2 C0 1.34 0 0.68 0 0 Z " fill="#F3DB81" transform="translate(304,69)"/>
<path d="M0 0 C0 5.52104275 -5.29853122 9.22807867 -9 13 C-12.26998928 16.07550859 -15.60384462 19.06470077 -19 22 C-19 17.63604688 -16.29697402 15.68537662 -13.4375 12.6875 C-12.8919043 12.10589111 -12.34630859 11.52428223 -11.78417969 10.92504883 C-8.06375023 7.00117561 -4.23602964 3.36956903 0 0 Z " fill="#B17C28" transform="translate(348,249)"/>
<path d="M0 0 C1.07765625 0.03609375 2.1553125 0.0721875 3.265625 0.109375 C4.49539062 0.17898437 4.49539062 0.17898437 5.75 0.25 C2.99770521 3.50271203 1.36239971 5.08884218 -2.8125 6.1875 C-6.1095082 6.2474456 -7.57207206 6.070991 -10.25 4.25 C-7.0246569 0.27312065 -5.05259733 -0.21967814 0 0 Z " fill="#FAE285" transform="translate(190.25,68.75)"/>
<path d="M0 0 C0.22331199 1.58129029 0.42804644 3.16521089 0.625 4.75 C0.74101562 5.63171875 0.85703125 6.5134375 0.9765625 7.421875 C1.00274921 10.30241275 0.7019164 11.68205251 -1 14 C-3.125 14.75 -3.125 14.75 -5 15 C-5.62820152 6.01322826 -5.62820152 6.01322826 -3.0625 1.875 C-1 0 -1 0 0 0 Z " fill="#F9EAB8" transform="translate(193,41)"/>
<path d="M0 0 C0.66 0.99 1.32 1.98 2 3 C4.56282742 3.72965366 4.56282742 3.72965366 7 4 C6.505 4.391875 6.01 4.78375 5.5 5.1875 C3.54406857 7.55091715 3.75792027 9.01435003 4 12 C3.05125 11.814375 2.1025 11.62875 1.125 11.4375 C-1.89868793 10.71313368 -1.89868793 10.71313368 -4 12 C-3.95875 11.236875 -3.9175 10.47375 -3.875 9.6875 C-3.77919176 6.77281584 -3.77919176 6.77281584 -6 4 C-4.35 4 -2.7 4 -1 4 C-0.67 2.68 -0.34 1.36 0 0 Z " fill="#EBE1C7" transform="translate(250,33)"/>
<path d="M0 0 C0.33 0.66 0.66 1.32 1 2 C-0.15562763 4.21569949 -1.35136769 6.27238624 -2.6875 8.375 C-3.04005859 8.9525 -3.39261719 9.53 -3.75585938 10.125 C-6.54568271 14.59279752 -8.89769353 18.29923118 -14 20 C-12.1836072 16.09230089 -9.87604089 12.5004195 -7.5625 8.875 C-7.16740234 8.24207031 -6.77230469 7.60914063 -6.36523438 6.95703125 C-4.43001579 3.92379347 -3.03268997 2.02179331 0 0 Z " fill="#955E23" transform="translate(360,231)"/>
<path d="M0 0 C0.8971875 0.7425 0.8971875 0.7425 1.8125 1.5 C3.97029994 3.28276418 3.97029994 3.28276418 7 3 C6.67 5.31 6.34 7.62 6 10 C4.68 10 3.36 10 2 10 C0.2488427 11.4166747 0.2488427 11.4166747 -1 13 C-1 11.02 -1 9.04 -1 7 C-1.99 6.67 -2.98 6.34 -4 6 C-2.68 5.67 -1.36 5.34 0 5 C0 3.35 0 1.7 0 0 Z " fill="#E7DCBB" transform="translate(226,36)"/>
<path d="M0 0 C0.99 0.33 1.98 0.66 3 1 C5.96101753 8.63630837 5.17604345 16.94112192 5 25 C4.34 25 3.68 25 3 25 C2.86722656 23.69804687 2.73445313 22.39609375 2.59765625 21.0546875 C2.41936886 19.32811487 2.24097798 17.60155293 2.0625 15.875 C1.93198242 14.59109375 1.93198242 14.59109375 1.79882812 13.28125 C1.33583609 8.82280819 0.80306863 4.41326006 0 0 Z " fill="#906F38" transform="translate(371,144)"/>
<path d="M0 0 C1.65 1.65 3.3 3.3 5 5 C4.34 5.66 3.68 6.32 3 7 C2.30251417 8.31747324 1.63040043 9.64914193 1 11 C0.01 10.34 -0.98 9.68 -2 9 C-4.15274948 9.30840599 -4.15274948 9.30840599 -6 10 C-5.814375 9.05125 -5.62875 8.1025 -5.4375 7.125 C-4.71313368 4.10131207 -4.71313368 4.10131207 -6 2 C-3.525 2.495 -3.525 2.495 -1 3 C-0.67 2.01 -0.34 1.02 0 0 Z " fill="#EFE3C1" transform="translate(273,37)"/>
<path d="M0 0 C2.79224073 -0.08071788 5.58216566 -0.14035408 8.375 -0.1875 C9.1690625 -0.21263672 9.963125 -0.23777344 10.78125 -0.26367188 C12.85586148 -0.29004405 14.93100865 -0.15486462 17 0 C17.66 0.99 18.32 1.98 19 3 C10.585 3.495 10.585 3.495 2 4 C1.34 2.68 0.68 1.36 0 0 Z " fill="#FBD96B" transform="translate(299,303)"/>
<path d="M0 0 C0.92554688 0.00064453 1.85109375 0.00128906 2.8046875 0.00195312 C3.76375 0.01806641 4.7228125 0.03417969 5.7109375 0.05078125 C6.67773438 0.04755859 7.64453125 0.04433594 8.640625 0.04101562 C15.81881158 0.09615533 15.81881158 0.09615533 18.0859375 2.36328125 C11.81814681 4.26393074 6.58765893 4.48764542 0.0859375 3.98828125 C-0.78417969 3.9315625 -1.65429688 3.87484375 -2.55078125 3.81640625 C-4.67263881 3.67650355 -6.79348973 3.52146914 -8.9140625 3.36328125 C-5.87839317 0.71418475 -4.01508899 -0.01414571 0 0 Z " fill="#3E2C08" transform="translate(386.9140625,385.63671875)"/>
<path d="M0 0 C0 4.45127741 -2.38462448 7.07101226 -4.8125 10.6875 C-5.26431641 11.38939453 -5.71613281 12.09128906 -6.18164062 12.81445312 C-6.62314453 13.47767578 -7.06464844 14.14089844 -7.51953125 14.82421875 C-7.92276611 15.43354248 -8.32600098 16.04286621 -8.74145508 16.6706543 C-9.1567749 17.10933838 -9.57209473 17.54802246 -10 18 C-10.99 18 -11.98 18 -13 18 C-11.63648771 14.23346605 -9.92096222 11.15351373 -7.625 7.875 C-7.03976563 7.02679688 -6.45453125 6.17859375 -5.8515625 5.3046875 C-4.06715681 3.08359181 -2.35179515 1.58513065 0 0 Z " fill="#EBCE5A" transform="translate(153,91)"/>
<path d="M0 0 C2.7885289 -0.22107787 5.34653181 -0.28107535 8.125 -0.1875 C8.87910156 -0.17396484 9.63320312 -0.16042969 10.41015625 -0.14648438 C12.27374127 -0.11109985 14.13695978 -0.05729167 16 0 C15.01 1.485 15.01 1.485 14 3 C11.2114711 3.22107787 8.65346819 3.28107535 5.875 3.1875 C5.12089844 3.17396484 4.36679688 3.16042969 3.58984375 3.14648438 C1.72625873 3.11109985 -0.13695978 3.05729167 -2 3 C-1.34 2.01 -0.68 1.02 0 0 Z " fill="#FDDA6B" transform="translate(185,303)"/>
<path d="M0 0 C0.66 0.33 1.32 0.66 2 1 C2 1.66 2 2.32 2 3 C-0.44921875 4.65625 -0.44921875 4.65625 -3.6875 6.5 C-4.74324219 7.1084375 -5.79898438 7.716875 -6.88671875 8.34375 C-9.55619481 9.76389787 -12.16914502 10.94958999 -15 12 C-13.50843611 7.65287629 -10.26304428 5.92002193 -6.5 3.6875 C-5.90574219 3.31560547 -5.31148437 2.94371094 -4.69921875 2.56054688 C-3.17369803 1.63593669 -1.5896236 0.80945307 0 0 Z " fill="#EED98A" transform="translate(190,59)"/>
<path d="M0 0 C3.458176 -0.0868329 6.91607344 -0.14033282 10.375 -0.1875 C11.35984375 -0.21263672 12.3446875 -0.23777344 13.359375 -0.26367188 C14.77089844 -0.27817383 14.77089844 -0.27817383 16.2109375 -0.29296875 C17.08024902 -0.3086792 17.94956055 -0.32438965 18.84521484 -0.34057617 C19.55629395 -0.22818604 20.26737305 -0.1157959 21 0 C21.66 0.99 22.32 1.98 23 3 C19.541824 3.0868329 16.08392656 3.14033282 12.625 3.1875 C11.64015625 3.21263672 10.6553125 3.23777344 9.640625 3.26367188 C8.22910156 3.27817383 8.22910156 3.27817383 6.7890625 3.29296875 C5.91975098 3.3086792 5.05043945 3.32438965 4.15478516 3.34057617 C3.44370605 3.22818604 2.73262695 3.1157959 2 3 C1.34 2.01 0.68 1.02 0 0 Z " fill="#624023" transform="translate(93,170)"/>
<path d="M0 0 C1.2065625 0.0309375 1.2065625 0.0309375 2.4375 0.0625 C3.0625 2.4375 3.0625 2.4375 3.4375 5.0625 C2.7775 5.7225 2.1175 6.3825 1.4375 7.0625 C-0.6875 6.6875 -0.6875 6.6875 -2.5625 6.0625 C-2.94468767 4.40635343 -3.27645102 2.73792976 -3.5625 1.0625 C-2.5625 0.0625 -2.5625 0.0625 0 0 Z " fill="#F1DB7F" transform="translate(267.5625,308.9375)"/>
<path d="M0 0 C0.66 0.33 1.32 0.66 2 1 C-0.95727675 4.29525123 -3.69270742 6.01116032 -7.75 7.75 C-8.73484375 8.17796875 -9.7196875 8.6059375 -10.734375 9.046875 C-11.48203125 9.36140625 -12.2296875 9.6759375 -13 10 C-12.87109375 8.20703125 -12.87109375 8.20703125 -12 6 C-9.34765625 4.26171875 -9.34765625 4.26171875 -6.0625 2.6875 C-4.98097656 2.15511719 -3.89945312 1.62273437 -2.78515625 1.07421875 C-1.86605469 0.71972656 -0.94695312 0.36523438 0 0 Z " fill="#CE9E37" transform="translate(313,278)"/>
<path d="M0 0 C0.33 0.66 0.66 1.32 1 2 C6.61 2 12.22 2 18 2 C17.67 2.66 17.34 3.32 17 4 C10.73 4 4.46 4 -2 4 C-1.34 2.68 -0.68 1.36 0 0 Z " fill="#634023" transform="translate(387,169)"/>
<path d="M0 0 C0.66 0.33 1.32 0.66 2 1 C1.41139757 3.65020486 0.80512738 6.29405483 0.1875 8.9375 C0.02185547 9.69224609 -0.14378906 10.44699219 -0.31445312 11.22460938 C-0.77816623 13.17570413 -1.3807544 15.09255787 -2 17 C-2.99 17.33 -3.98 17.66 -5 18 C-4.55120234 15.37303769 -4.09145886 12.74883107 -3.625 10.125 C-3.49867187 9.37863281 -3.37234375 8.63226563 -3.2421875 7.86328125 C-2.2265625 2.2265625 -2.2265625 2.2265625 0 0 Z " fill="#D4B44E" transform="translate(130,133)"/>
<path d="M0 0 C1.67542976 0.28604898 3.34385343 0.61781233 5 1 C5 2.65 5 4.3 5 6 C2.625 6.625 2.625 6.625 0 7 C-0.66 6.34 -1.32 5.68 -2 5 C-1.46428571 1.46428571 -1.46428571 1.46428571 0 0 Z " fill="#F4DD81" transform="translate(231,309)"/>
<path d="M0 0 C0.66 0.33 1.32 0.66 2 1 C1.34 5.62 0.68 10.24 0 15 C-0.66 15 -1.32 15 -2 15 C-2.05406122 13.06280622 -2.09282025 11.12518079 -2.125 9.1875 C-2.14820312 8.10855469 -2.17140625 7.02960938 -2.1953125 5.91796875 C-2 3 -2 3 0 0 Z " fill="#9F7F3E" transform="translate(126,150)"/>
<path d="M0 0 C0.33 0 0.66 0 1 0 C1 6.6 1 13.2 1 20 C-2 17 -2 17 -2.1875 13.3125 C-2.125625 12.219375 -2.06375 11.12625 -2 10 C-1.34 10 -0.68 10 0 10 C0 6.7 0 3.4 0 0 Z " fill="#51361D" transform="translate(376,159)"/>
<path d="M0 0 C6.6 0.33 13.2 0.66 20 1 C20 1.33 20 1.66 20 2 C17.36 2 14.72 2 12 2 C12 2.66 12 3.32 12 4 C10.3733152 3.71788123 8.74867104 3.42397625 7.125 3.125 C5.76761719 2.88136719 5.76761719 2.88136719 4.3828125 2.6328125 C2 2 2 2 0 0 Z " fill="#532C04" transform="translate(34,387)"/>
<path d="M0 0 C0.33 0.66 0.66 1.32 1 2 C0.26418258 3.1549921 -0.48930039 4.29874185 -1.25 5.4375 C-1.66765625 6.07558594 -2.0853125 6.71367187 -2.515625 7.37109375 C-4.27248877 9.29902057 -5.46089803 9.61479436 -8 10 C-6.44303593 6.17836093 -3.96591316 3.81381505 -1 1 C-0.67 0.67 -0.34 0.34 0 0 Z " fill="#A16921" transform="translate(354,241)"/>
<path d="M0 0 C2.64 0 5.28 0 8 0 C8 1.65 8 3.3 8 5 C4.62496331 3.8141763 2.35277269 2.72426311 0 0 Z " fill="#6C4D28" transform="translate(361,167)"/>
<path d="M0 0 C2.64 0 5.28 0 8 0 C5.63707344 2.52588702 4.33537489 3.88820837 1 5 C0.67 3.35 0.34 1.7 0 0 Z " fill="#6F4F29" transform="translate(130,167)"/>
<path d="M0 0 C0.99 0.33 1.98 0.66 3 1 C4.28317892 4.84953676 4.06643637 7.94738135 4 12 C3.34 12 2.68 12 2 12 C1.34 8.04 0.68 4.08 0 0 Z " fill="#BA9A46" transform="translate(371,144)"/>
<path d="M0 0 C1.60080151 4.00200378 0.29279692 7.04556236 -1 11 C-1.99 11 -2.98 11 -4 11 C-3.5247412 9.35303396 -3.04468109 7.70745272 -2.5625 6.0625 C-2.29566406 5.14597656 -2.02882813 4.22945312 -1.75390625 3.28515625 C-1 1 -1 1 0 0 Z " fill="#754924" transform="translate(371,203)"/>
<path d="M0 0 C0.33 0 0.66 0 1 0 C0.67 3.3 0.34 6.6 0 10 C-0.99 10 -1.98 10 -3 10 C-2.69201674 8.51988629 -2.378482 7.04092675 -2.0625 5.5625 C-1.88847656 4.73878906 -1.71445312 3.91507813 -1.53515625 3.06640625 C-1 1 -1 1 0 0 Z " fill="#643E21" transform="translate(373,194)"/>
<path d="M0 0 C1.98 0.495 1.98 0.495 4 1 C3.67 2.32 3.34 3.64 3 5 C1.68 4.67 0.36 4.34 -1 4 C-0.67 2.68 -0.34 1.36 0 0 Z " fill="#EED97E" transform="translate(279,310)"/>
<path d="M0 0 C1.32 0 2.64 0 4 0 C3.67 1.65 3.34 3.3 3 5 C1.68 4.34 0.36 3.68 -1 3 C-0.67 2.01 -0.34 1.02 0 0 Z " fill="#F1DB7F" transform="translate(218,310)"/>
<path d="M0 0 C0 0.99 0 1.98 0 3 C-2.31 4.32 -4.62 5.64 -7 7 C-4.60526316 0 -4.60526316 0 0 0 Z " fill="#C69433" transform="translate(321,274)"/>
<path d="M0 0 C2.64 0 5.28 0 8 0 C7.67 0.99 7.34 1.98 7 3 C4.625 3.1875 4.625 3.1875 2 3 C1.34 2.01 0.68 1.02 0 0 Z " fill="#76552C" transform="translate(400,167)"/>
<path d="M0 0 C2.31 0 4.62 0 7 0 C6.01 1.485 6.01 1.485 5 3 C3.35 2.67 1.7 2.34 0 2 C0 1.34 0 0.68 0 0 Z " fill="#77562C" transform="translate(92,167)"/>
<path d="M0 0 C0.66 0.33 1.32 0.66 2 1 C0.95125002 3.62187494 0.35068687 4.79371361 -2.125 6.25 C-2.74375 6.4975 -3.3625 6.745 -4 7 C-2.79618552 4.50638429 -1.54571278 2.31856917 0 0 Z " fill="#E9D37B" transform="translate(174,69)"/>
</svg>
