<?xml version="1.0" encoding="UTF-8"?>
<svg version="1.1" xmlns="http://www.w3.org/2000/svg" width="500" height="500">
<path d="M0 0 C165 0 330 0 500 0 C500 165 500 330 500 500 C335 500 170 500 0 500 C0 335 0 170 0 0 Z " fill="#000000" transform="translate(0,0)"/>
<path d="M0 0 C1.093125 0.598125 2.18625 1.19625 3.3125 1.8125 C8.32470221 4.61933324 12.62719211 8.30089147 17 12 C17.97582031 12.81597656 18.95164062 13.63195312 19.95703125 14.47265625 C32.22549767 25.02207519 42.84257211 39.52771632 48 55 C50.50447516 56.21869929 50.50447516 56.21869929 53 57 C52.67 57.99 52.34 58.98 52 60 C52.66 59.67 53.32 59.34 54 59 C55.875 58.83203125 55.875 58.83203125 58 58.8125 C58.70125 58.79832031 59.4025 58.78414063 60.125 58.76953125 C62 59 62 59 64 61 C61.69 62.98 59.38 64.96 57 67 C59.62901288 65.47793991 61.84365964 64.15634036 64 62 C68.33643601 61.68462284 70.32653229 61.55102153 74 64 C73.67 64.33 73.34 64.66 73 65 C75.97 65.33 78.94 65.66 82 66 C79.75 70.5 79.75 70.5 76 72 C77.6396875 72.4021875 77.6396875 72.4021875 79.3125 72.8125 C84.13357731 74.36505032 84.13357731 74.36505032 86 77 C86 77.66 86 78.32 86 79 C84.741875 79.04125 83.48375 79.0825 82.1875 79.125 C81.47980469 79.14820313 80.77210938 79.17140625 80.04296875 79.1953125 C78 79 78 79 75 77 C75.33 77.66 75.66 78.32 76 79 C76.039992 80.99960012 76.04346799 83.00047242 76 85 C70.125 82.125 70.125 82.125 69 81 C68.67 81.66 68.34 82.32 68 83 C63.60071232 81.82685662 61.31787774 80.9735047 59 77 C57.96958573 75.01549844 56.96314063 73.01800895 56 71 C55.67 71 55.34 71 55 71 C55.7425 72.11375 55.7425 72.11375 56.5 73.25 C58 76 58 76 58 80 C54.625 80.1875 54.625 80.1875 51 80 C50.34 79.01 49.68 78.02 49 77 C48.01 78.98 48.01 78.98 47 81 C47 80.34 47 79.68 47 79 C46.278125 78.896875 45.55625 78.79375 44.8125 78.6875 C40.94831199 77.74292071 38.11103268 76.61965478 35.796875 73.24609375 C34.81068912 71.52721343 33.89954212 69.76576786 33 68 C32.34 68 31.68 68 31 68 C31.825 68.9075 32.65 69.815 33.5 70.75 C36.03294997 73.53624497 36 73.87258261 36 78 C29.94802802 77.51584224 25.68406608 76.10986693 21.62109375 71.40234375 C21.18925781 70.85707031 20.75742187 70.31179687 20.3125 69.75 C19.549375 68.8425 18.78625 67.935 18 67 C17.01 67 16.02 67 15 67 C15.49371094 67.37511719 15.98742187 67.75023437 16.49609375 68.13671875 C21.7941681 72.36878216 21.7941681 72.36878216 22.9375 75.875 C22.9684375 76.926875 22.9684375 76.926875 23 78 C14.77000833 77.67470389 10.16652774 76.23849428 4.25 70.1875 C0.16677274 67.43917396 -1.93210936 67.72832108 -6.65234375 68.46875 C-9.24753716 69.05601506 -11.61675768 69.80837884 -14 71 C-12.453125 70.505 -12.453125 70.505 -10.875 70 C-5.92684534 68.62606571 -2.54824417 68.16394815 2.125 70.6875 C4.90761142 72.92568745 6.95165571 75.08504852 9 78 C9 78.33 9 78.66 9 79 C-0.59607157 79.35935358 -6.93232973 79.37844685 -15 74 C-20.33468429 73.61535105 -20.33468429 73.61535105 -25 76 C-24.34 75.67 -23.68 75.34 -23 75 C-17.02420528 74.94024205 -12.64651475 76.05046246 -8 80 C-7.67 80.99 -7.34 81.98 -7 83 C-16.17552357 85.69020586 -24.39325884 86.9947444 -33.875 85.3125 C-37.6841793 84.93158207 -39.04779382 85.63823505 -42 88 C-42.66 88.99 -43.32 89.98 -44 91 C-43.195625 90.34 -42.39125 89.68 -41.5625 89 C-37.53842996 86.32679981 -33.68847571 86.27291018 -29 87 C-25.4375 88.5 -25.4375 88.5 -23 90 C-30.29394941 98.266476 -38.998635 101.643239 -49.58203125 103.84765625 C-54.7986097 105.60638841 -57.7756566 109.02068468 -60.3125 113.8125 C-60.869375 114.864375 -61.42625 115.91625 -62 117 C-62.99 116.67 -63.98 116.34 -65 116 C-63.21312915 110.38412017 -63.21312915 110.38412017 -61.93310547 108.07714844 C-60.85232175 105.6712594 -60.8223631 104.13670763 -60.9453125 101.515625 C-60.96980469 100.66226563 -60.99429688 99.80890625 -61.01953125 98.9296875 C-61.08924259 97.158503 -61.16722323 95.38762255 -61.25390625 93.6171875 C-61.51678386 83.31857059 -57.12212611 77.56570342 -50.25390625 70.2109375 C-43.92226148 64 -43.92226148 64 -40 64 C-40.03924414 72.69257675 -43.07924272 79.35032677 -47 87 C-42.36416477 82.57488455 -40.63615003 79.33549152 -39.1875 73.0625 C-37.29716021 65.71204653 -34.35480369 62.050426 -28 58 C-20.53854842 53.72098863 -20.53854842 53.72098863 -16.73828125 54.41015625 C-16.16464844 54.60480469 -15.59101563 54.79945313 -15 55 C-18.02992451 61.39512756 -20.95043136 66.95043136 -26 72 C-20.92069006 68.83954048 -18.11186458 66.42588636 -15.625 61 C-12.76784234 55.7252474 -8.62780838 53.46229914 -3.13671875 51.52734375 C0.30886235 50.67697181 3.4660625 50.81068192 7 51 C2.97025196 58.90450577 -0.94527122 62.4761442 -9.375 65.3125 C-11.24594312 65.88834989 -13.11972581 66.45538984 -15 67 C-11.5493691 66.35687166 -8.23100998 65.52630275 -4.875 64.5 C-4.02679688 64.2421875 -3.17859375 63.984375 -2.3046875 63.71875 C-0.53024853 63.16536564 1.23665627 62.58778124 3 62 C3.28875 61.236875 3.5775 60.47375 3.875 59.6875 C5.36132133 56.13684348 6.69543571 54.99650759 10 53 C14.99487481 51.54589993 19.80170097 50.88860788 25 51 C22.99155908 55.92980953 19.35894926 59.09403383 15 62 C12.30078125 62.4140625 12.30078125 62.4140625 9.3125 62.625 C7.82169922 62.73714844 7.82169922 62.73714844 6.30078125 62.8515625 C5.16189453 62.92503906 5.16189453 62.92503906 4 63 C11.8215552 63.51114398 11.8215552 63.51114398 19 61 C20.09269709 59.82111051 21.17496992 58.63252205 22.25 57.4375 C25.68558388 53.78197808 28.35217354 53.16176963 33.27734375 52.97265625 C33.84582031 52.98167969 34.41429687 52.99070312 35 53 C27.17443304 38.58183322 17.91756435 28.41330863 4.99609375 18.53271484 C3.17538552 17.13467102 1.38363455 15.70662236 -0.40625 14.26953125 C-14.58946026 3.20181795 -32.07469918 -3.65352012 -49.9375 -5.125 C-51.36352539 -5.25455078 -51.36352539 -5.25455078 -52.81835938 -5.38671875 C-63.19601059 -6.28787937 -72.27415731 -5.6499747 -82.50634766 -3.71118164 C-84.59702195 -3.31776483 -86.69059893 -2.94437382 -88.78515625 -2.57226562 C-100.71666371 -0.38447645 -112.41269783 2.7229728 -122.75 9.3125 C-123.37140869 9.69712402 -123.99281738 10.08174805 -124.63305664 10.47802734 C-130.09021931 13.92027024 -135.10884962 17.79412463 -140 22 C-140.78761719 22.64324219 -141.57523438 23.28648437 -142.38671875 23.94921875 C-143.49466797 24.87154297 -143.49466797 24.87154297 -144.625 25.8125 C-145.27726562 26.35519531 -145.92953125 26.89789063 -146.6015625 27.45703125 C-148.33577581 29.02341261 -148.33577581 29.02341261 -148 32 C-149.71101795 34.80606943 -151.56762978 37.42533072 -153.54296875 40.05078125 C-169.27741931 61.47411782 -176.8976597 87.98476181 -173.69970703 114.48876953 C-170.36663803 135.0009432 -160.73109505 153.0889409 -149 170 C-149.33 170.66 -149.66 171.32 -150 172 C-160.39837985 161.24417584 -167.29692581 148.10922256 -172 134 C-170.98671555 144.53815829 -165.77042099 154.55234547 -159.8046875 163.171875 C-158.00785875 165.98768455 -157.55116661 167.77099559 -157 171 C-147.09777145 191.36934934 -127.71475197 201.55157656 -107.42578125 209.37890625 C-94.39096869 213.72384377 -80.62165087 214.31981244 -67 215 C-69.87570246 217.87570246 -72.19810329 217.31673129 -76.13720703 217.37915039 C-77.10255371 217.37778076 -78.06790039 217.37641113 -79.0625 217.375 C-80.53759033 217.37584595 -80.53759033 217.37584595 -82.04248047 217.37670898 C-91.12163646 217.2422193 -99.32338891 215.52983157 -108 213 C-109.33157453 212.65970873 -110.66392082 212.32215107 -112 212 C-111.21753906 212.33773437 -110.43507813 212.67546875 -109.62890625 213.0234375 C-108.11103516 213.69246094 -108.11103516 213.69246094 -106.5625 214.375 C-105.04849609 215.03628906 -105.04849609 215.03628906 -103.50390625 215.7109375 C-101 217 -101 217 -100 219 C-97.14763859 219.95276588 -94.33841176 220.78846416 -91.4375 221.5625 C-90.25704102 221.89411133 -90.25704102 221.89411133 -89.05273438 222.23242188 C-65.84564636 228.56510624 -40.16116438 226.11571168 -17.79663086 217.89404297 C-12.29886011 215.90037996 -12.29886011 215.90037996 -9 217 C-16.83930889 220.42327899 -24.59005366 223.37594449 -32.9375 225.3125 C-33.62191162 225.47137695 -34.30632324 225.63025391 -35.01147461 225.79394531 C-43.63615856 227.69498985 -51.93861265 228.16362224 -60.75 228.125 C-61.81025391 228.12306641 -62.87050781 228.12113281 -63.96289062 228.11914062 C-71.02077894 228.08009883 -77.98816864 227.8611021 -85 227 C-52.06231307 232.91189253 -18.11743618 226.93903016 9.76513672 207.78759766 C13.63388276 205.00368702 17.32406088 202.03227263 21 199 C21.72574219 198.43925781 22.45148438 197.87851562 23.19921875 197.30078125 C29.91260595 191.8946662 34.85107149 184.84150181 40 178 C40.67772461 177.104021 40.67772461 177.104021 41.36914062 176.18994141 C43.92867341 172.80502487 46.4717847 169.40840877 49 166 C49 169.58050122 48.16840155 170.51032702 46.125 173.375 C44.4347647 175.75112788 43.07387003 177.8082334 42.0234375 180.53515625 C40.88696985 183.27222147 39.52003369 184.90979461 37.5 187.0625 C35.67826144 189.01160587 34.18036741 190.63362869 33 193.03125 C24.35343298 210.05417882 -4.51192243 222.17600382 -21.77734375 227.9765625 C-23.37255859 228.48316406 -23.37255859 228.48316406 -25 229 C-25.90878906 229.29648437 -26.81757813 229.59296875 -27.75390625 229.8984375 C-48.70033966 236.20421924 -71.59354043 235.00480016 -93 232 C-94.69962891 231.82984375 -94.69962891 231.82984375 -96.43359375 231.65625 C-100.94675283 230.82578918 -104.86289998 229.25098304 -109.0625 227.4375 C-109.89668457 227.07962402 -110.73086914 226.72174805 -111.59033203 226.35302734 C-143.61522051 212.33331107 -167.66042062 187.74349406 -181.3125 155.625 C-187.12907892 140.38879467 -189.01954511 124.6996376 -189.5625 108.5 C-189.62727539 106.69402344 -189.62727539 106.69402344 -189.69335938 104.8515625 C-189.79873168 101.90113807 -189.90085903 98.95063929 -190 96 C-190.33 96 -190.66 96 -191 96 C-190.41513985 82.1973004 -186.6550255 69.51005641 -181 57 C-180.3917884 55.5610521 -179.78653057 54.12085356 -179.18359375 52.6796875 C-167.86795593 25.90799403 -147.16071282 4.26332878 -120 -7 C-94.74747475 -17 -94.74747475 -17 -87 -17 C-87 -17.66 -87 -18.32 -87 -19 C-58.51836021 -25.09259425 -23.24525307 -17.31999249 0 0 Z " fill="#D3B24F" transform="translate(316,141)"/>
<path d="M0 0 C-4.02974804 7.90450577 -7.94527122 11.4761442 -16.375 14.3125 C-18.24594312 14.88834989 -20.11972581 15.45538984 -22 16 C-18.5493691 15.35687166 -15.23100998 14.52630275 -11.875 13.5 C-11.02679688 13.2421875 -10.17859375 12.984375 -9.3046875 12.71875 C-7.53024853 12.16536564 -5.76334373 11.58778124 -4 11 C-3.71125 10.236875 -3.4225 9.47375 -3.125 8.6875 C-1.63867867 5.13684348 -0.30456429 3.99650759 3 2 C7.99487481 0.54589993 12.80170097 -0.11139212 18 0 C15.99155908 4.92980953 12.35894926 8.09403383 8 11 C5.30078125 11.4140625 5.30078125 11.4140625 2.3125 11.625 C1.31863281 11.69976562 0.32476562 11.77453125 -0.69921875 11.8515625 C-1.45847656 11.90054688 -2.21773438 11.94953125 -3 12 C3.60906192 12.31394455 3.60906192 12.31394455 10 10.9375 C13.21005507 9.93435779 14.73407727 10.13413959 18 10.625 C21.97265125 11.15149595 22.77592713 11.12003904 26.5 9.125 C27.7375 8.073125 27.7375 8.073125 29 7 C29.66 6.67 30.32 6.34 31 6 C30.34 7.65 29.68 9.3 29 11 C30.4540625 11.61875 30.4540625 11.61875 31.9375 12.25 C35 14 35 14 35.69140625 16.109375 C35.79324219 16.73328125 35.89507812 17.3571875 36 18 C34.56260487 18.02712066 33.12506137 18.04645067 31.6875 18.0625 C30.48673828 18.07990234 30.48673828 18.07990234 29.26171875 18.09765625 C27 18 27 18 24 17 C24.825 17.9075 25.65 18.815 26.5 19.75 C29.03294997 22.53624497 29 22.87258261 29 27 C22.94802802 26.51584224 18.68406608 25.10986693 14.62109375 20.40234375 C13.97333984 19.58443359 13.97333984 19.58443359 13.3125 18.75 C12.549375 17.8425 11.78625 16.935 11 16 C10.01 16 9.02 16 8 16 C8.74056641 16.56267578 8.74056641 16.56267578 9.49609375 17.13671875 C14.7941681 21.36878216 14.7941681 21.36878216 15.9375 24.875 C15.958125 25.57625 15.97875 26.2775 16 27 C7.77000833 26.67470389 3.16652774 25.23849428 -2.75 19.1875 C-6.83322726 16.43917396 -8.93210936 16.72832108 -13.65234375 17.46875 C-16.24753716 18.05601506 -18.61675768 18.80837884 -21 20 C-19.96875 19.67 -18.9375 19.34 -17.875 19 C-12.92684534 17.62606571 -9.54824417 17.16394815 -4.875 19.6875 C-2.09238858 21.92568745 -0.04834429 24.08504852 2 27 C2 27.33 2 27.66 2 28 C-7.59607157 28.35935358 -13.93232973 28.37844685 -22 23 C-27.33468429 22.61535105 -27.33468429 22.61535105 -32 25 C-31.34 24.67 -30.68 24.34 -30 24 C-24.02420528 23.94024205 -19.64651475 25.05046246 -15 29 C-14.505 30.485 -14.505 30.485 -14 32 C-23.17552357 34.69020586 -31.39325884 35.9947444 -40.875 34.3125 C-44.6841793 33.93158207 -46.04779382 34.63823505 -49 37 C-49.66 37.99 -50.32 38.98 -51 40 C-50.195625 39.34 -49.39125 38.68 -48.5625 38 C-44.53842996 35.32679981 -40.68847571 35.27291018 -36 36 C-32.4375 37.5 -32.4375 37.5 -30 39 C-37.29394941 47.266476 -45.998635 50.643239 -56.58203125 52.84765625 C-61.7986097 54.60638841 -64.7756566 58.02068468 -67.3125 62.8125 C-67.869375 63.864375 -68.42625 64.91625 -69 66 C-69.99 65.67 -70.98 65.34 -72 65 C-70.21312915 59.38412017 -70.21312915 59.38412017 -68.93310547 57.07714844 C-67.85232175 54.6712594 -67.8223631 53.13670763 -67.9453125 50.515625 C-67.96980469 49.66226563 -67.99429688 48.80890625 -68.01953125 47.9296875 C-68.08924259 46.158503 -68.16722323 44.38762255 -68.25390625 42.6171875 C-68.51678386 32.31857059 -64.12212611 26.56570342 -57.25390625 19.2109375 C-50.92226148 13 -50.92226148 13 -47 13 C-47.03924414 21.69257675 -50.07924272 28.35032677 -54 36 C-49.36416477 31.57488455 -47.63615003 28.33549152 -46.1875 22.0625 C-44.29716021 14.71204653 -41.35480369 11.050426 -35 7 C-27.53854842 2.72098863 -27.53854842 2.72098863 -23.73828125 3.41015625 C-22.87783203 3.70212891 -22.87783203 3.70212891 -22 4 C-25.02992451 10.39512756 -27.95043136 15.95043136 -33 21 C-27.92069006 17.83954048 -25.11186458 15.42588636 -22.625 10 C-19.76784234 4.7252474 -15.62780838 2.46229914 -10.13671875 0.52734375 C-6.69113765 -0.32302819 -3.5339375 -0.18931808 0 0 Z " fill="#9A6B32" transform="translate(323,192)"/>
<path d="M0 0 C-0.03924414 8.69257675 -3.07924272 15.35032677 -7 23 C-6.22527344 22.20722656 -5.45054687 21.41445312 -4.65234375 20.59765625 C-2.1696527 18.1661547 -0.00685814 16.68677408 3 15 C5.00580329 13.67541292 7.00715862 12.3440093 9 11 C9.66 11.33 10.32 11.66 11 12 C10.195625 12.763125 9.39125 13.52625 8.5625 14.3125 C5.83200976 16.79430898 5.83200976 16.79430898 5 20 C3 21 1 22 -1 23 C-2.85315257 25.04946399 -2.85315257 25.04946399 -4 27 C-3.195625 26.34 -2.39125 25.68 -1.5625 25 C2.46157004 22.32679981 6.31152429 22.27291018 11 23 C14.5625 24.5 14.5625 24.5 17 26 C9.70605059 34.266476 1.001365 37.643239 -9.58203125 39.84765625 C-14.7986097 41.60638841 -17.7756566 45.02068468 -20.3125 49.8125 C-20.869375 50.864375 -21.42625 51.91625 -22 53 C-22.99 52.67 -23.98 52.34 -25 52 C-23.21312915 46.38412017 -23.21312915 46.38412017 -21.93310547 44.07714844 C-20.85232175 41.6712594 -20.8223631 40.13670763 -20.9453125 37.515625 C-20.96980469 36.66226563 -20.99429688 35.80890625 -21.01953125 34.9296875 C-21.08924259 33.158503 -21.16722323 31.38762255 -21.25390625 29.6171875 C-21.51678386 19.31857059 -17.12212611 13.56570342 -10.25390625 6.2109375 C-3.92226148 0 -3.92226148 0 0 0 Z " fill="#B5974B" transform="translate(276,205)"/>
<path d="M0 0 C-0.33 0.99 -0.66 1.98 -1 3 C-0.34 2.67 0.32 2.34 1 2 C2.875 1.83203125 2.875 1.83203125 5 1.8125 C6.051875 1.79123047 6.051875 1.79123047 7.125 1.76953125 C9 2 9 2 11 4 C8.69 5.98 6.38 7.96 4 10 C6.62901288 8.47793991 8.84365964 7.15634036 11 5 C15.33643601 4.68462284 17.32653229 4.55102153 21 7 C20.67 7.33 20.34 7.66 20 8 C22.97 8.33 25.94 8.66 29 9 C26.75 13.5 26.75 13.5 23 15 C24.093125 15.268125 25.18625 15.53625 26.3125 15.8125 C31.13357731 17.36505032 31.13357731 17.36505032 33 20 C33 20.66 33 21.32 33 22 C31.741875 22.04125 30.48375 22.0825 29.1875 22.125 C28.47980469 22.14820313 27.77210938 22.17140625 27.04296875 22.1953125 C25 22 25 22 22 20 C22.495 20.99 22.495 20.99 23 22 C23.039992 23.99960012 23.04346799 26.00047242 23 28 C17.125 25.125 17.125 25.125 16 24 C15.67 24.66 15.34 25.32 15 26 C10.60071232 24.82685662 8.31787774 23.9735047 6 20 C4.96958573 18.01549844 3.96314063 16.01800895 3 14 C2.67 14 2.34 14 2 14 C2.495 14.7425 2.99 15.485 3.5 16.25 C5 19 5 19 5 23 C1.625 23.1875 1.625 23.1875 -2 23 C-2.66 22.01 -3.32 21.02 -4 20 C-4.66 21.32 -5.32 22.64 -6 24 C-6 23.34 -6 22.68 -6 22 C-6.721875 21.896875 -7.44375 21.79375 -8.1875 21.6875 C-12.11584021 20.72723906 -15.05037937 19.44704096 -17.3125 16 C-18 14 -18 14 -18 11 C-15.69 11 -13.38 11 -11 11 C-12.32 10.34 -13.64 9.68 -15 9 C-14.01 8.67 -13.02 8.34 -12 8 C-13.98 7.34 -15.96 6.68 -18 6 C-17.01 3.69 -16.02 1.38 -15 -1 C-9.43842552 -1.91457003 -5.324335 -2.32086397 0 0 Z " fill="#E1D16B" transform="translate(369,198)"/>
<path d="M0 0 C-2.00844092 4.92980953 -5.64105074 8.09403383 -10 11 C-12.69921875 11.4140625 -12.69921875 11.4140625 -15.6875 11.625 C-16.68136719 11.69976562 -17.67523438 11.77453125 -18.69921875 11.8515625 C-19.45847656 11.90054688 -20.21773438 11.94953125 -21 12 C-14.39093808 12.31394455 -14.39093808 12.31394455 -8 10.9375 C-4.78994493 9.93435779 -3.26592273 10.13413959 0 10.625 C3.97265125 11.15149595 4.77592713 11.12003904 8.5 9.125 C9.325 8.42375 10.15 7.7225 11 7 C11.66 6.67 12.32 6.34 13 6 C12.34 7.65 11.68 9.3 11 11 C12.4540625 11.61875 12.4540625 11.61875 13.9375 12.25 C17 14 17 14 17.69140625 16.109375 C17.79324219 16.73328125 17.89507812 17.3571875 18 18 C16.56260487 18.02712066 15.12506137 18.04645067 13.6875 18.0625 C12.48673828 18.07990234 12.48673828 18.07990234 11.26171875 18.09765625 C9 18 9 18 6 17 C6.825 17.9075 7.65 18.815 8.5 19.75 C11.03294997 22.53624497 11 22.87258261 11 27 C4.94802802 26.51584224 0.68406608 25.10986693 -3.37890625 20.40234375 C-3.81074219 19.85707031 -4.24257813 19.31179687 -4.6875 18.75 C-5.450625 17.8425 -6.21375 16.935 -7 16 C-7.99 16 -8.98 16 -10 16 C-9.50628906 16.37511719 -9.01257813 16.75023437 -8.50390625 17.13671875 C-3.2058319 21.36878216 -3.2058319 21.36878216 -2.0625 24.875 C-2.041875 25.57625 -2.02125 26.2775 -2 27 C-8.46115097 26.74461854 -12.83628239 26.22485986 -18 22 C-18.825 21.071875 -19.65 20.14375 -20.5 19.1875 C-22.93672255 17.02737838 -24.1407645 16.99622109 -27.4921875 16.90625 C-31.01813245 17.16165044 -34.49865201 17.51556692 -38 18 C-35.60984686 15.18528018 -33.53387538 14.33209125 -30 13.375 C-28.700625 13.01535156 -28.700625 13.01535156 -27.375 12.6484375 C-26.59125 12.43445313 -25.8075 12.22046875 -25 12 C-24.01 11.67 -23.02 11.34 -22 11 C-21.71125 10.236875 -21.4225 9.47375 -21.125 8.6875 C-19.63867867 5.13684348 -18.30456429 3.99650759 -15 2 C-10.00512519 0.54589993 -5.19829903 -0.11139212 0 0 Z " fill="#A38541" transform="translate(341,192)"/>
<path d="M0 0 C0.15246447 9.45279738 -3.57563417 19.06999236 -9.9140625 26.1328125 C-11.09442433 27.212718 -12.28512573 28.28148659 -13.48828125 29.3359375 C-16.21803993 32.34078815 -17.07631439 36.12052043 -18 40 C-18.66 40 -19.32 40 -20 40 C-20.27846201 37.16695172 -20.52319597 34.33727391 -20.75 31.5 C-20.83121094 30.70851562 -20.91242188 29.91703125 -20.99609375 29.1015625 C-21.54818808 21.61761709 -19.32191517 17.0564847 -14.8515625 11.171875 C-4.58064516 0 -4.58064516 0 0 0 Z " fill="#D4BF61" transform="translate(276,205)"/>
<path d="M0 0 C1.5 2.4375 1.5 2.4375 1.375 6 C0.5 9.4375 0.5 9.4375 -1.5 12.4375 C-2.16 12.4375 -2.82 12.4375 -3.5 12.4375 C-2.83333333 9.10416667 -2.16666667 5.77083333 -1.5 2.4375 C-9.81906609 1.71410295 -16.69005917 4.65871168 -23.125 9.875 C-25.14036968 11.46458436 -25.14036968 11.46458436 -26.5 13.4375 C-26.78235828 16.08700338 -26.78235828 16.08700338 -26.5 18.4375 C-16.58521878 22.43078681 -16.58521878 22.43078681 -6.33203125 21.6015625 C-4.97247103 20.88224546 -3.6262436 20.13697377 -2.296875 19.36328125 C0.03446709 18.16213326 1.92181654 18.11522707 4.5 18.4375 C4.995 19.9225 4.995 19.9225 5.5 21.4375 C4.241875 21.705625 2.98375 21.97375 1.6875 22.25 C-2.55957862 23.31862713 -2.55957862 23.31862713 -5.5 26.4375 C-5.60699219 27.08460938 -5.71398437 27.73171875 -5.82421875 28.3984375 C-6.5 30.4375 -6.5 30.4375 -8.2421875 31.703125 C-8.94601563 32.02796875 -9.64984375 32.3528125 -10.375 32.6875 C-11.07367188 33.02265625 -11.77234375 33.3578125 -12.4921875 33.703125 C-14.5 34.4375 -14.5 34.4375 -17.5 34.4375 C-16.98967606 30.66110282 -16.29233071 28.99027419 -13.5 26.4375 C-14.30824219 26.20675781 -15.11648437 25.97601563 -15.94921875 25.73828125 C-27.4128524 22.23972961 -27.4128524 22.23972961 -30.5 17.4375 C-30.66114756 13.56995861 -29.90969182 11.94961477 -27.5 8.9375 C-20.34873657 2.97811381 -9.50053984 -5.9378374 0 0 Z " fill="#D2A246" transform="translate(218.5,247.5625)"/>
<path d="M0 0 C0.99 0.66 1.98 1.32 3 2 C2.67 2.33 2.34 2.66 2 3 C4.97 3.33 7.94 3.66 11 4 C8.75 8.5 8.75 8.5 5 10 C6.093125 10.268125 7.18625 10.53625 8.3125 10.8125 C13.13357731 12.36505032 13.13357731 12.36505032 15 15 C15 15.66 15 16.32 15 17 C6.94706994 17.4026465 6.94706994 17.4026465 3 14 C0.35065178 13.28566879 0.35065178 13.28566879 -2 13 C-2.99 14.485 -2.99 14.485 -4 16 C-4.20625 15.195625 -4.4125 14.39125 -4.625 13.5625 C-5.07875 12.716875 -5.5325 11.87125 -6 11 C-9.05272465 10.10169161 -9.05272465 10.10169161 -12 10 C-12.33 8.35 -12.66 6.7 -13 5 C-8.64260028 0.74887832 -6.35587178 -0.83945476 0 0 Z " fill="#675C2E" transform="translate(387,203)"/>
<path d="M0 0 C2 1 2 1 3 3 C-18.15721678 15.55764818 -40.72690896 25.48148847 -65.75 25.25 C-66.79115967 25.24468262 -67.83231934 25.23936523 -68.9050293 25.23388672 C-90.03689558 24.97540295 -90.03689558 24.97540295 -96 21 C-95.195625 21.0721875 -94.39125 21.144375 -93.5625 21.21875 C-69.53441601 23.115704 -47.50234389 22.4623269 -24.6953125 14.3046875 C-22.10210242 13.38911438 -19.6592282 12.62902527 -17 12 C-17 11.34 -17 10.68 -17 10 C-15.85660156 9.36191406 -14.71320313 8.72382813 -13.53515625 8.06640625 C-12.04422197 7.23185813 -10.55333921 6.39721796 -9.0625 5.5625 C-8.30775391 5.14162109 -7.55300781 4.72074219 -6.77539062 4.28710938 C-6.05673828 3.88427734 -5.33808594 3.48144531 -4.59765625 3.06640625 C-3.93258057 2.69459229 -3.26750488 2.32277832 -2.58227539 1.93969727 C-1.01422168 1.09652286 -1.01422168 1.09652286 0 0 Z " fill="#3B2F12" transform="translate(324,346)"/>
<path d="M0 0 C0.66 0.33 1.32 0.66 2 1 C1.195625 1.763125 0.39125 2.52625 -0.4375 3.3125 C-3.16799024 5.79430898 -3.16799024 5.79430898 -4 9 C-4.825 9.37125 -5.65 9.7425 -6.5 10.125 C-13.51374019 13.88236082 -18.98095314 20.18509446 -23 27 C-22.34 27.66 -21.68 28.32 -21 29 C-21.721875 29.66 -22.44375 30.32 -23.1875 31 C-26.45688866 34.24136533 -28.6930039 38.04374711 -31 42 C-31.99 41.67 -32.98 41.34 -34 41 C-32.68938409 36.76570244 -31.05643741 32.92592596 -29 29 C-28.34 29 -27.68 29 -27 29 C-26.9690625 27.515 -26.9690625 27.515 -26.9375 26 C-25.76737949 17.93916982 -17.02797292 11.77640227 -11 7 C-9.36504293 5.94895617 -7.70116376 4.94011682 -6 4 C-3.99419671 2.67541292 -1.99284138 1.3440093 0 0 Z " fill="#BBAA56" transform="translate(285,216)"/>
<path d="M0 0 C-4.6596977 9.14017626 -9.66460207 12.2253154 -19.29296875 15.3984375 C-22 16 -22 16 -25 15 C-22.05352509 8.21816947 -19.17072948 4.21548101 -12.1875 1.25 C-8.01313533 -0.2209666 -4.39619381 -0.23551038 0 0 Z " fill="#A37738" transform="translate(323,192)"/>
<path d="M0 0 C5.32550475 4.99266071 11.67026781 11.01080344 14 18 C15.32586988 18.68138923 16.66047258 19.34586812 18 20 C19.30941942 21.29545973 20.57626155 22.63452952 21.8125 24 C35.26760018 37.69694021 56.2914543 48.76830514 75 53 C75 53.66 75 54.32 75 55 C69.14027443 54.44601796 64.32395833 52.76349552 58.9375 50.4375 C58.10331543 50.07962402 57.26913086 49.72174805 56.40966797 49.35302734 C35.92758806 40.38647156 11.14471251 24.33801622 0 4 C0 2.68 0 1.36 0 0 Z " fill="#766937" transform="translate(148,318)"/>
<path d="M0 0 C0.99 0.33 1.98 0.66 3 1 C1.39369175 5.24292532 -0.5768162 9.27025107 -2.625 13.3125 C-2.94984375 13.95767578 -3.2746875 14.60285156 -3.609375 15.26757812 C-4.40441956 16.84597541 -5.20195634 18.42311694 -6 20 C-5.39542969 19.68417969 -4.79085938 19.36835938 -4.16796875 19.04296875 C-1.77017998 17.88943794 0.36804943 17.355669 3 17 C4 18 4 18 4.0625 20.5625 C4.041875 21.366875 4.02125 22.17125 4 23 C6.97 22.01 9.94 21.02 13 20 C12 23 12 23 9.25 24.6875 C6.14979295 25.93950669 4.28328088 26.28970125 1 26 C1 24.35 1 22.7 1 21 C0.45730469 21.433125 -0.08539063 21.86625 -0.64453125 22.3125 C-1.35996094 22.869375 -2.07539063 23.42625 -2.8125 24 C-3.52019531 24.556875 -4.22789062 25.11375 -4.95703125 25.6875 C-7 27 -7 27 -10 27 C-10.49620828 20.8774301 -9.0217873 17.15000601 -6.125 11.8125 C-5.76019531 11.11447266 -5.39539063 10.41644531 -5.01953125 9.69726562 C-4.32371211 8.3676185 -3.62254232 7.04075216 -2.91503906 5.71728516 C-1.90851133 3.82830008 -0.94328177 1.92131603 0 0 Z " fill="#DBA949" transform="translate(325,247)"/>
<path d="M0 0 C4.32401765 2.33496953 7.18070201 4.98792209 10 9 C10 9.33 10 9.66 10 10 C-5.5013818 10.58049557 -5.5013818 10.58049557 -11 7 C-11.9375 4.8125 -11.9375 4.8125 -12 3 C-7.80590318 0.60337325 -4.8458087 -0.70668044 0 0 Z " fill="#A6793A" transform="translate(315,210)"/>
<path d="M0 0 C0.33 0 0.66 0 1 0 C1.21914062 1.05316406 1.43828125 2.10632813 1.6640625 3.19140625 C5.98522129 23.16248229 14.36130448 40.22214022 26 57 C25.67 57.66 25.34 58.32 25 59 C14.60162015 48.24417584 7.70307419 35.10922256 3 21 C2.34 21.33 1.68 21.66 1 22 C-0.17700048 17.37540756 -0.11408412 12.92133538 -0.0625 8.1875 C-0.05573242 7.00510742 -0.05573242 7.00510742 -0.04882812 5.79882812 C-0.03711312 3.86585239 -0.01917998 1.93291607 0 0 Z " fill="#7A682B" transform="translate(141,254)"/>
<path d="M0 0 C0.33 0.66 0.66 1.32 1 2 C-0.258125 2.391875 -1.51625 2.78375 -2.8125 3.1875 C-6.01982562 4.36824996 -6.87927922 4.83778145 -9 7.6875 C-9.33 8.450625 -9.66 9.21375 -10 10 C-8.35 10 -6.7 10 -5 10 C-5 13.54913582 -5.56122405 13.97588078 -7.875 16.5 C-11.56710969 20.56667154 -13.26369165 23.47768739 -14 29 C-13.25234375 28.7834375 -12.5046875 28.566875 -11.734375 28.34375 C-10.74953125 28.0653125 -9.7646875 27.786875 -8.75 27.5 C-7.77546875 27.2215625 -6.8009375 26.943125 -5.796875 26.65625 C-3 26 -3 26 1 26 C1 26.66 1 27.32 1 28 C-3.8241603 30.96871403 -8.4157782 32.08493452 -14 31 C-15.765625 29.67578125 -15.765625 29.67578125 -17 28 C-17.12777831 21.48330609 -14.02274022 17.73625378 -10 13 C-10.66 12.34 -11.32 11.68 -12 11 C-11.92290713 6.83698517 -11.62578976 4.69730859 -8.8125 1.5625 C-5.58823227 -0.22875985 -3.63195497 -0.33785628 0 0 Z " fill="#D7A648" transform="translate(299,249)"/>
<path d="M0 0 C-2.00844092 4.92980953 -5.64105074 8.09403383 -10 11 C-13.13671875 11.4140625 -13.13671875 11.4140625 -16.6875 11.625 C-18.45673828 11.73714844 -18.45673828 11.73714844 -20.26171875 11.8515625 C-21.61716797 11.92503906 -21.61716797 11.92503906 -23 12 C-21.02220988 7.41985445 -19.324287 4.57617098 -15 2 C-10.00223858 0.55089619 -5.20022084 -0.1114333 0 0 Z " fill="#B8964A" transform="translate(341,192)"/>
<path d="M0 0 C5.96565036 0.96740276 8.84625885 3.73399558 13 8 C13.66 7.34 14.32 6.68 15 6 C18.65316671 7.24976756 19.78065836 7.67098753 22 11 C22.125 14.1875 22.125 14.1875 22 17 C16.125 14.125 16.125 14.125 15 13 C14.67 13.66 14.34 14.32 14 15 C9.60071232 13.82685662 7.31787774 12.9735047 5 9 C4.484375 7.948125 3.96875 6.89625 3.4375 5.8125 C2.30124189 2.90358047 2.30124189 2.90358047 0 2 C0 1.34 0 0.68 0 0 Z " fill="#D3C363" transform="translate(370,209)"/>
<path d="M0 0 C3.32755529 1.85724016 6.58624758 3.72494535 9.76171875 5.8359375 C15.83915708 9.81639271 21.66166259 12.90398025 28.5 15.3125 C29.15081543 15.54243652 29.80163086 15.77237305 30.47216797 16.00927734 C32.63469093 16.73117606 34.80700295 17.37652935 37 18 C37.94125732 18.27287842 38.88251465 18.54575684 39.85229492 18.8269043 C48.73799347 21.15939158 57.2152928 21.35669592 66.3125 21.1875 C67.7467305 21.17240284 69.18097664 21.15872346 70.61523438 21.14648438 C74.07715639 21.11393 77.53847237 21.06243621 81 21 C71.21578719 26.92579571 51.3598483 24.04977775 40.49804688 21.81982422 C26.37164347 18.34178319 10.93635269 11.83249653 0 2 C0 1.34 0 0.68 0 0 Z " fill="#C6AD52" transform="translate(179,324)"/>
<path d="M0 0 C3.89569708 2.21549185 6.53752151 4.58173262 7.9375 8.875 C7.958125 9.57625 7.97875 10.2775 8 11 C0.14233921 10.68942052 -4.34297726 9.65702274 -10 4 C-10 3.01 -10 2.02 -10 1 C-6.7314809 -0.63425955 -3.5188781 -0.67086525 0 0 Z " fill="#B9964A" transform="translate(331,208)"/>
<path d="M0 0 C0.33 0.66 0.66 1.32 1 2 C1.99 2 2.98 2 4 2 C2.49567295 5.82919612 0.44343806 7.78089547 -3 10 C-7.31952222 11.00274623 -10.71862763 11.16764701 -15 10 C-13.53252414 6.57588965 -11.96740348 4.28261806 -9 2 C-6.03599018 1.08878454 -3.05857615 0.49669185 0 0 Z " fill="#C8AF59" transform="translate(351,193)"/>
<path d="M0 0 C0.91410645 0.51735718 0.91410645 0.51735718 1.84667969 1.04516602 C-8.41261815 5.48608656 -18.56834943 9.46052815 -29.46582031 12.04516602 C-30.32973389 12.25230225 -31.19364746 12.45943848 -32.08374023 12.67285156 C-38.4639898 14.10420977 -44.18684193 15.30181159 -50.15332031 12.04516602 C-48.89519531 11.88661133 -47.63707031 11.72805664 -46.34082031 11.56469727 C-31.49751489 9.58539554 -18.17845917 6.2694993 -4.60644531 -0.23217773 C-2.15332031 -0.95483398 -2.15332031 -0.95483398 0 0 Z " fill="#4C3B15" transform="translate(314.1533203125,361.954833984375)"/>
<path d="M0 0 C-1.546875 0.9590625 -1.546875 0.9590625 -3.125 1.9375 C-3.85332031 2.39511719 -4.58164063 2.85273438 -5.33203125 3.32421875 C-7.30422342 4.56297488 -9.28158558 5.79350868 -11.26171875 7.01953125 C-21.39004649 13.35008904 -30.74858418 20.3025617 -39 29 C-39.99 28.67 -40.98 28.34 -42 28 C-36.56134056 20.80177427 -9.93538744 -4.96769372 0 0 Z " fill="#503E16" transform="translate(208,144)"/>
<path d="M0 0 C0.66 0.33 1.32 0.66 2 1 C1.43454163 4.95820859 0.19097652 7.6659053 -2 11 C-2.78375 10.835 -3.5675 10.67 -4.375 10.5 C-8.39873591 9.73262437 -8.39873591 9.73262437 -12 12 C-12.99 12 -13.98 12 -15 12 C-15.25 6.375 -15.25 6.375 -13 3 C-12.38125 3.20625 -11.7625 3.4125 -11.125 3.625 C-10.073125 3.810625 -10.073125 3.810625 -9 4 C-8.34 3.34 -7.68 2.68 -7 2 C-6.01 2 -5.02 2 -4 2 C-3.67 3.32 -3.34 4.64 -3 6 C-2.01 4.02 -1.02 2.04 0 0 Z " fill="#D4A447" transform="translate(353,263)"/>
<path d="M0 0 C7.985003 -0.62627475 7.985003 -0.62627475 11.9375 1.8125 C15.04743943 5.1109206 16 6.35235312 16 11 C9.57443572 10.48595486 5.42985715 8.7538381 1.125 3.875 C0 2 0 2 0 0 Z " fill="#C9AE58" transform="translate(336,208)"/>
<path d="M0 0 C0 1.65 0 3.3 0 5 C2.97 3.35 5.94 1.7 9 0 C9 3 9 3 7.64453125 4.421875 C2.65146374 8.04158279 2.65146374 8.04158279 -0.9375 7.8125 C-1.618125 7.544375 -2.29875 7.27625 -3 7 C-3 6.01 -3 5.02 -3 4 C-3.928125 4.66 -4.85625 5.32 -5.8125 6 C-9 8 -9 8 -12 8 C-11.67609598 5.08486382 -11.35764922 2.65218387 -9.9375 0.0625 C-6.65527711 -1.73742868 -3.60232088 -0.64959885 0 0 Z " fill="#D2A346" transform="translate(370,267)"/>
<path d="M0 0 C0 1.65 0 3.3 0 5 C2.97 3.35 5.94 1.7 9 0 C9 3 9 3 7.64453125 4.421875 C2.65146374 8.04158279 2.65146374 8.04158279 -0.9375 7.8125 C-1.618125 7.544375 -2.29875 7.27625 -3 7 C-3 6.01 -3 5.02 -3 4 C-3.928125 4.66 -4.85625 5.32 -5.8125 6 C-9 8 -9 8 -12 8 C-11.67609598 5.08486382 -11.35764922 2.65218387 -9.9375 0.0625 C-6.65527711 -1.73742868 -3.60232088 -0.64959885 0 0 Z " fill="#D2A346" transform="translate(235,267)"/>
<path d="M0 0 C1.550922 0.21148936 3.09161784 0.49813404 4.625 0.8125 C17.04016102 3.18339527 29.39804736 4.37073035 42 5 C39.12420629 7.87579371 36.80153293 7.31663203 32.86230469 7.37939453 C31.89711914 7.37794434 30.93193359 7.37649414 29.9375 7.375 C28.95555664 7.37483887 27.97361328 7.37467773 26.96191406 7.37451172 C5.03693094 7.03693094 5.03693094 7.03693094 -1 1 C-0.67 0.67 -0.34 0.34 0 0 Z " fill="#E5C657" transform="translate(207,351)"/>
<path d="M0 0 C1.79258558 0.08693141 3.58415144 0.19510504 5.375 0.3125 C6.87160156 0.39951172 6.87160156 0.39951172 8.3984375 0.48828125 C9.25695312 0.65714844 10.11546875 0.82601562 11 1 C13.13586678 4.20380017 13.23132175 5.01939967 13.125 8.6875 C13.10695313 9.49574219 13.08890625 10.30398437 13.0703125 11.13671875 C13.03550781 12.05904297 13.03550781 12.05904297 13 13 C12.67 12.34 12.34 11.68 12 11 C11.2575 10.855625 10.515 10.71125 9.75 10.5625 C6.58114442 9.914325 4.60786922 8.9030397 2 7 C0.26476072 4.35582586 0 3.21534057 0 0 Z " fill="#C9B75D" transform="translate(351,209)"/>
<path d="M0 0 C0.33 0.66 0.66 1.32 1 2 C0.01 3.485 0.01 3.485 -1 5 C0.4540625 5.61875 0.4540625 5.61875 1.9375 6.25 C5 8 5 8 5.69140625 10.109375 C5.79324219 10.73328125 5.89507812 11.3571875 6 12 C-0.25644413 12.3830476 -4.20764245 11.58587391 -10 9 C-12.99042608 8.48159548 -15.97275357 8.19907063 -19 8 C-18.34 7.01 -17.68 6.02 -17 5 C-14.828125 4.84765625 -14.828125 4.84765625 -12.25 5.0625 C-7.09355242 5.24159514 -4.90216854 4.30183492 -1 1 C-0.67 0.67 -0.34 0.34 0 0 Z " fill="#958442" transform="translate(353,198)"/>
<path d="M0 0 C0 3.58050122 -0.83159845 4.51032702 -2.875 7.375 C-4.5652353 9.75112788 -5.92612997 11.8082334 -6.9765625 14.53515625 C-8.11303015 17.27222147 -9.47996631 18.90979461 -11.5 21.0625 C-13.88897808 23.61850409 -15.4462309 25.88604126 -17 29 C-19.625 31.25 -19.625 31.25 -22 33 C-21.45790637 29.0969259 -20.42135299 27.05839857 -18 24 C-17.54415527 23.39220703 -17.08831055 22.78441406 -16.61865234 22.15820312 C-11.07910156 14.77213542 -5.53955078 7.38606771 0 0 Z " fill="#957129" transform="translate(365,307)"/>
<path d="M0 0 C1.88213751 3.43362925 2.97033508 6.95300681 4.125 10.6875 C6.31515502 17.5701073 9.1921705 23.99092389 12.40869141 30.4519043 C15 35.70978513 15 35.70978513 15 39 C11.08008122 35.60507034 9.14550482 31.86760141 7 27.25 C6.65332275 26.50935303 6.30664551 25.76870605 5.94946289 25.00561523 C2.6243573 17.62664588 0.28070982 9.99687313 -1 2 C-0.67 1.34 -0.34 0.68 0 0 Z " fill="#998740" transform="translate(131,277)"/>
<path d="M0 0 C2.875 -0.125 2.875 -0.125 6 0 C8 2 8 2 8.25 5.5 C8 9 8 9 6 11 C2.875 11.125 2.875 11.125 0 11 C0 7.37 0 3.74 0 0 Z " fill="#BA903E" transform="translate(305,287)"/>
<path d="M0 0 C1.051875 -0.02126953 1.051875 -0.02126953 2.125 -0.04296875 C4 0.1875 4 0.1875 6 2.1875 C2.76373323 5.31844448 0.08213026 7.83372664 -4.25 9.25 C-7 9.1875 -7 9.1875 -8.875 7.75 C-9.431875 6.9765625 -9.431875 6.9765625 -10 6.1875 C-5.27769866 0.04850826 -5.27769866 0.04850826 0 0 Z " fill="#DBCD69" transform="translate(374,199.8125)"/>
<path d="M0 0 C0.99 0.33 1.98 0.66 3 1 C5.14255793 0.61067144 5.14255793 0.61067144 7 0 C7 0.99 7 1.98 7 3 C6.01 3.495 6.01 3.495 5 4 C5.66 4.33 6.32 4.66 7 5 C6.67 5.66 6.34 6.32 6 7 C5.1646875 6.93039063 5.1646875 6.93039063 4.3125 6.859375 C-1.94881396 6.56323177 -5.59455975 7.85501658 -11 11 C-11.33 10.34 -11.66 9.68 -12 9 C-14.31 10.32 -16.62 11.64 -19 13 C-17.79035091 9.37105273 -16.30607306 8.74213343 -13.04296875 6.97265625 C-10.36214873 5.69631938 -7.62125165 4.71804303 -4.796875 3.80859375 C-2.71708006 2.87268603 -1.51316964 1.68596988 0 0 Z " fill="#8D5C2A" transform="translate(297,208)"/>
<path d="M0 0 C3.375 0.4375 3.375 0.4375 6.375 2.4375 C1.36884761 7.32155111 1.36884761 7.32155111 -3.375 7.875 C-6.625 7.4375 -6.625 7.4375 -8.625 5.4375 C-5.80146129 2.01502884 -4.49410608 0.54239211 0 0 Z " fill="#CBB65C" transform="translate(383.625,202.5625)"/>
<path d="M0 0 C2.875 -0.125 2.875 -0.125 6 0 C6.66 0.66 7.32 1.32 8 2 C7.625 4.625 7.625 4.625 7 7 C5.35 7.33 3.7 7.66 2 8 C2 8.99 2 9.98 2 11 C1.34 11 0.68 11 0 11 C0 7.37 0 3.74 0 0 Z " fill="#B48B3C" transform="translate(232,287)"/>
<path d="M0 0 C0 0.66 0 1.32 0 2 C-0.75619629 2.23187012 -1.51239258 2.46374023 -2.29150391 2.70263672 C-5.73623231 3.75934399 -9.18061886 4.81716137 -12.625 5.875 C-13.81480469 6.23980469 -15.00460938 6.60460937 -16.23046875 6.98046875 C-17.38417969 7.33496094 -18.53789062 7.68945312 -19.7265625 8.0546875 C-20.78439941 8.37937012 -21.84223633 8.70405273 -22.93212891 9.03857422 C-25.96755185 9.98983123 -28.98548479 10.98462594 -32 12 C-32 11.34 -32 10.68 -32 10 C-8.2 0 -8.2 0 0 0 Z " fill="#826424" transform="translate(229,122)"/>
<path d="M0 0 C1.98 0.495 1.98 0.495 4 1 C3.01 1.495 3.01 1.495 2 2 C2.66 2.66 3.32 3.32 4 4 C7.09926819 3.67801034 7.09926819 3.67801034 10 3 C10 3.66 10 4.32 10 5 C9.071875 5.3403125 9.071875 5.3403125 8.125 5.6875 C5.76128418 6.85311983 5.76128418 6.85311983 5 9.5625 C4.67 10.366875 4.34 11.17125 4 12 C1.875 12.8125 1.875 12.8125 0 13 C-0.625 11.25 -0.625 11.25 -1 9 C-0.505 8.0409375 -0.505 8.0409375 0 7.0625 C1.31040647 4.35978665 0.78610392 2.82997412 0 0 Z " fill="#D7A648" transform="translate(303,264)"/>
<path d="M0 0 C2 1 2 1 3 3 C0.42702218 4.5617377 -2.15591462 6.09906742 -4.75 7.625 C-5.47960937 8.07101562 -6.20921875 8.51703125 -6.9609375 8.9765625 C-8.02441406 9.5953125 -8.02441406 9.5953125 -9.109375 10.2265625 C-9.75874023 10.61408691 -10.40810547 11.00161133 -11.07714844 11.40087891 C-13 12 -13 12 -15.24316406 11.11083984 C-15.82291992 10.7442627 -16.40267578 10.37768555 -17 10 C-15.28490234 9.04287109 -15.28490234 9.04287109 -13.53515625 8.06640625 C-12.04422197 7.23185813 -10.55333921 6.39721796 -9.0625 5.5625 C-8.30775391 5.14162109 -7.55300781 4.72074219 -6.77539062 4.28710938 C-6.05673828 3.88427734 -5.33808594 3.48144531 -4.59765625 3.06640625 C-3.93258057 2.69459229 -3.26750488 2.32277832 -2.58227539 1.93969727 C-1.01422168 1.09652286 -1.01422168 1.09652286 0 0 Z " fill="#453413" transform="translate(324,346)"/>
<path d="M0 0 C0.66 0 1.32 0 2 0 C3.38232443 1.62626404 4.71937515 3.2925002 6 5 C6.33 3.35 6.66 1.7 7 0 C7.66 0 8.32 0 9 0 C9 3.63 9 7.26 9 11 C4.125 7.25 4.125 7.25 3 5 C2.67 6.98 2.34 8.96 2 11 C1.34 11 0.68 11 0 11 C0 7.37 0 3.74 0 0 Z " fill="#B38B3C" transform="translate(274,287)"/>
<path d="M0 0 C5.75 1.625 5.75 1.625 8 5 C8.125 8.1875 8.125 8.1875 8 11 C5.0625 9.6875 5.0625 9.6875 2 8 C1.67 7.01 1.34 6.02 1 5 C0.34 4.67 -0.32 4.34 -1 4 C-0.67 2.68 -0.34 1.36 0 0 Z " fill="#C6AE57" transform="translate(384,215)"/>
<path d="M0 0 C10.10132996 -0.6269791 10.10132996 -0.6269791 13.6875 1.875 C15 4 15 4 15 6 C7.60780287 6.49281314 7.60780287 6.49281314 4.6875 4.125 C4.130625 3.42375 3.57375 2.7225 3 2 C2.01 1.34 1.02 0.68 0 0 Z " fill="#B6984A" transform="translate(387,214)"/>
<path d="M0 0 C4.09562153 3.82307118 7.17969886 7.8881044 10.25 12.5625 C10.69601562 13.22185547 11.14203125 13.88121094 11.6015625 14.56054688 C12.23964844 15.52250977 12.23964844 15.52250977 12.890625 16.50390625 C13.27250977 17.07955322 13.65439453 17.6552002 14.04785156 18.24829102 C15.07812148 20.14372349 15.56484704 21.894356 16 24 C15.34 24 14.68 24 14 24 C12.47496106 21.83977784 11.06778639 19.68772669 9.6875 17.4375 C8.8817424 16.14747804 8.07446479 14.85840417 7.265625 13.5703125 C6.68264648 12.6407373 6.68264648 12.6407373 6.08789062 11.69238281 C4.78645656 9.66780001 3.38529621 7.73457428 1.9375 5.8125 C0 3 0 3 0 0 Z " fill="#E9D984" transform="translate(338,171)"/>
<path d="M0 0 C-1.796875 3.8359375 -1.796875 3.8359375 -3.625 5.3125 C-7.25944801 6.36457706 -10.28427995 5.61928668 -14 5 C-9.74404706 -0.49155218 -6.48540926 -0.63582444 0 0 Z " fill="#C3A752" transform="translate(398,207)"/>
<path d="M0 0 C1.25039062 0.09667969 2.50078125 0.19335938 3.7890625 0.29296875 C5.09101563 0.40511719 6.39296875 0.51726562 7.734375 0.6328125 C9.06502072 0.73932891 10.39574981 0.8448092 11.7265625 0.94921875 C14.98013166 1.20856122 18.23247105 1.47848066 21.484375 1.7578125 C21.484375 2.0878125 21.484375 2.4178125 21.484375 2.7578125 C17.0885556 2.78688834 12.69276101 2.8046369 8.296875 2.8203125 C7.05099609 2.82869141 5.80511719 2.83707031 4.52148438 2.84570312 C2.7184082 2.85053711 2.7184082 2.85053711 0.87890625 2.85546875 C-0.22606201 2.86070557 -1.33103027 2.86594238 -2.46948242 2.87133789 C-5.27361879 2.76683173 -7.78979829 2.39879209 -10.515625 1.7578125 C-6.90806544 -0.54142611 -4.19578328 -0.34329136 0 0 Z " fill="#57461B" transform="translate(243.515625,374.2421875)"/>
<path d="M0 0 C1.5234375 1.20703125 1.5234375 1.20703125 3 3 C3.26849095 8.81386174 1.13960886 13.3324277 -2.625 17.625 C-3.73178491 18.76792483 -4.85068436 19.89985294 -6 21 C-6 17.51812321 -5.09270047 15.85374939 -3.5625 12.75 C-1.50478634 8.37299892 -0.3205671 4.80850648 0 0 Z " fill="#110F07" transform="translate(275,208)"/>
<path d="M0 0 C2.88836663 2.11883829 5.46278139 4.47566067 8 7 C7.34 7.66 6.68 8.32 6 9 C3.75390625 7.09570312 3.75390625 7.09570312 1.5078125 5.19140625 C-0.39251757 3.68985011 -1.46304472 2.9759409 -3.91796875 3.0859375 C-4.66691406 3.18132812 -5.41585938 3.27671875 -6.1875 3.375 C-6.98414063 3.47425781 -7.78078125 3.57351562 -8.6015625 3.67578125 C-11.73740224 4.09968141 -14.87012057 4.53384774 -18 5 C-13.96154407 0.96154407 -5.51602572 -1.19913603 0 0 Z " fill="#261C0D" transform="translate(317,208)"/>
<path d="M0 0 C-2.70318971 1.18001154 -5.41151991 2.34409319 -8.125 3.5 C-8.88554687 3.83386719 -9.64609375 4.16773438 -10.4296875 4.51171875 C-14.79469239 6.35555702 -18.16543387 7.43248515 -23 7 C-20.03534784 4.03534784 -16.45426446 2.85930882 -12.625 1.25 C-11.85671875 0.90839844 -11.0884375 0.56679688 -10.296875 0.21484375 C-9.55179687 -0.09839844 -8.80671875 -0.41164063 -8.0390625 -0.734375 C-7.36053223 -1.02538086 -6.68200195 -1.31638672 -5.98291016 -1.61621094 C-3.38092475 -2.11982102 -2.20760053 -1.36317328 0 0 Z " fill="#423212" transform="translate(316,363)"/>
<path d="M0 0 C1.03125 0.804375 2.0625 1.60875 3.125 2.4375 C7.70474955 5.9012456 12.53061074 8.93487143 17.42626953 11.92749023 C18.98409742 12.90033699 20.49695172 13.94448857 22 15 C22 15.66 22 16.32 22 17 C17.72164739 15.50736579 14.18338171 13.2727041 10.5 10.6875 C9.94441406 10.30916016 9.38882813 9.93082031 8.81640625 9.54101562 C5.13409465 6.98072603 2.0702058 4.23631768 -1 1 C-0.67 0.67 -0.34 0.34 0 0 Z " fill="#867941" transform="translate(171,344)"/>
<path d="M0 0 C0.99 0.33 1.98 0.66 3 1 C-0.01396176 6.52559656 -3.0675379 8.91762251 -9 11 C-13.30576775 12.14919116 -17.63160146 13.12099298 -22 14 C-19.4681961 10.9200736 -16.96602855 10.19914774 -13.1875 9.125 C-8.00794432 7.49463139 -4.77716142 5.87924686 -1 2 C-0.67 1.34 -0.34 0.68 0 0 Z " fill="#241A0C" transform="translate(320,196)"/>
<path d="M0 0 C3.3384305 1.39134803 4.87513225 2.82237425 6.83203125 5.84375 C7.31994141 6.59527344 7.80785156 7.34679687 8.31054688 8.12109375 C8.80619141 8.90613281 9.30183594 9.69117188 9.8125 10.5 C10.32748047 11.28503906 10.84246094 12.07007813 11.37304688 12.87890625 C14.16037819 17.22968044 14.16037819 17.22968044 15 19 C14.67 19.66 14.34 20.32 14 21 C0 6.14893617 0 6.14893617 0 0 Z " fill="#90854D" transform="translate(152,292)"/>
<path d="M0 0 C0.66 0 1.32 0 2 0 C2.67119549 1.4562545 3.33681807 2.91507867 4 4.375 C4.556875 5.59316406 4.556875 5.59316406 5.125 6.8359375 C6 9 6 9 6 11 C5.34 11 4.68 11 4 11 C4 10.34 4 9.68 4 9 C2.02 9 0.04 9 -2 9 C-2 9.66 -2 10.32 -2 11 C-2.66 10.67 -3.32 10.34 -4 10 C-2.68 6.7 -1.36 3.4 0 0 Z " fill="#A07C35" transform="translate(323,287)"/>
<path d="M0 0 C0.66 0 1.32 0 2 0 C2.67119549 1.4562545 3.33681807 2.91507867 4 4.375 C4.556875 5.59316406 4.556875 5.59316406 5.125 6.8359375 C6 9 6 9 6 11 C5.34 11 4.68 11 4 11 C4 10.34 4 9.68 4 9 C2.02 9 0.04 9 -2 9 C-2 9.66 -2 10.32 -2 11 C-2.66 10.67 -3.32 10.34 -4 10 C-2.68 6.7 -1.36 3.4 0 0 Z " fill="#A07C35" transform="translate(293,287)"/>
<path d="M0 0 C2.99743464 0.35740477 5.9983498 0.68009624 9 1 C9 1.33 9 1.66 9 2 C4.69013794 2.62688903 0.72610265 3.02673086 -3.625 2.8125 C-8.2610787 2.72411722 -10.45963388 4.09508421 -14 7 C-14.66 6.67 -15.32 6.34 -16 6 C-15.06894211 5.01470572 -14.12987519 4.03697556 -13.1875 3.0625 C-12.66542969 2.51722656 -12.14335937 1.97195312 -11.60546875 1.41015625 C-7.88838815 -1.85472477 -4.54409342 -0.73291829 0 0 Z " fill="#161208" transform="translate(286,226)"/>
<path d="M0 0 C-0.66666667 1.33333333 -1.33333333 2.66666667 -2 4 C-2.268125 4.721875 -2.53625 5.44375 -2.8125 6.1875 C-4 8 -4 8 -6.625 8.75 C-7.40875 8.8325 -8.1925 8.915 -9 9 C-8.4 3.6 -8.4 3.6 -6.75 1.125 C-4.41786614 -0.37422891 -2.71628175 -0.22023906 0 0 Z " fill="#DFAC4A" transform="translate(367,266)"/>
<path d="M0 0 C-0.66666667 1.33333333 -1.33333333 2.66666667 -2 4 C-2.268125 4.721875 -2.53625 5.44375 -2.8125 6.1875 C-4 8 -4 8 -6.625 8.75 C-7.40875 8.8325 -8.1925 8.915 -9 9 C-8.4 3.6 -8.4 3.6 -6.75 1.125 C-4.41786614 -0.37422891 -2.71628175 -0.22023906 0 0 Z " fill="#DFAC4A" transform="translate(232,266)"/>
<path d="M0 0 C0.99 0 1.98 0 3 0 C2.67 1.65 2.34 3.3 2 5 C2.763125 4.484375 3.52625 3.96875 4.3125 3.4375 C5.199375 2.963125 6.08625 2.48875 7 2 C7.99 2.33 8.98 2.66 10 3 C4.70769231 7.92307692 4.70769231 7.92307692 1.125 8.3125 C0.073125 8.1578125 0.073125 8.1578125 -1 8 C-1.625 5.6875 -1.625 5.6875 -2 3 C-1.34 2.01 -0.68 1.02 0 0 Z " fill="#DDAB49" transform="translate(247,266)"/>
<path d="M0 0 C0.66 2.31 1.32 4.62 2 7 C7.94 8.485 7.94 8.485 14 10 C13.67 10.99 13.34 11.98 13 13 C0.79963717 10.37190083 0.79963717 10.37190083 -3 5 C-3 3.68 -3 2.36 -3 1 C-1 0 -1 0 0 0 Z " fill="#C29641" transform="translate(191,260)"/>
<path d="M0 0 C0.66 0.33 1.32 0.66 2 1 C1.67 1.99 1.34 2.98 1 4 C3.475 4.495 3.475 4.495 6 5 C5.01 5.495 5.01 5.495 4 6 C3.67 6.66 3.34 7.32 3 8 C2.01 7.34 1.02 6.68 0 6 C-3.43988753 5.97682362 -3.43988753 5.97682362 -7.1875 6.375 C-8.45980469 6.48585937 -9.73210937 6.59671875 -11.04296875 6.7109375 C-12.50669922 6.85402344 -12.50669922 6.85402344 -14 7 C-11.5860268 4.13840263 -9.4583325 3.32568005 -5.875 2.375 C-2.65634118 1.7005259 -2.65634118 1.7005259 0 0 Z " fill="#9E7437" transform="translate(317,203)"/>
<path d="M0 0 C0.85078125 0.04833984 1.7015625 0.09667969 2.578125 0.14648438 C3.46757812 0.20255859 4.35703125 0.25863281 5.2734375 0.31640625 C6.170625 0.36861328 7.0678125 0.42082031 7.9921875 0.47460938 C10.21127762 0.60444975 12.42993621 0.73941964 14.6484375 0.87890625 C12.6484375 2.87890625 12.6484375 2.87890625 10.40185547 3.10595703 C9.49064941 3.0954834 8.57944336 3.08500977 7.640625 3.07421875 C6.65449219 3.06777344 5.66835937 3.06132812 4.65234375 3.0546875 C3.10353516 3.02955078 3.10353516 3.02955078 1.5234375 3.00390625 C0.48316406 2.99488281 -0.55710938 2.98585938 -1.62890625 2.9765625 C-4.20335342 2.95294372 -6.77734462 2.92000774 -9.3515625 2.87890625 C-5.69552459 0.44154764 -4.28726592 -0.25723596 0 0 Z " fill="#87712D" transform="translate(234.3515625,355.12109375)"/>
<path d="M0 0 C2.64 0.33 5.28 0.66 8 1 C8 1.66 8 2.32 8 3 C7.236875 3.45375 6.47375 3.9075 5.6875 4.375 C2.9717328 6.0170918 1.82635004 7.47789757 0 10 C-0.66 10 -1.32 10 -2 10 C-1.54177532 6.53058454 -1.10868317 3.32604951 0 0 Z " fill="#DAA949" transform="translate(382,265)"/>
<path d="M0 0 C0.99 0.33 1.98 0.66 3 1 C1.92643323 2.15498897 0.84070212 3.29867867 -0.25 4.4375 C-0.85328125 5.07558594 -1.4565625 5.71367187 -2.078125 6.37109375 C-5.65544746 9.40309266 -9.2044884 9.11661323 -13.75 9.0625 C-14.73484375 9.05347656 -15.7196875 9.04445312 -16.734375 9.03515625 C-17.48203125 9.02355469 -18.2296875 9.01195312 -19 9 C-18.67 8.34 -18.34 7.68 -18 7 C-15.70703125 6.7265625 -15.70703125 6.7265625 -12.8125 6.625 C-7.6154313 6.25329808 -4.9195637 5.40383164 -1 2 C-0.67 1.34 -0.34 0.68 0 0 Z " fill="#2E2512" transform="translate(338,196)"/>
<path d="M0 0 C0.66 1.32 1.32 2.64 2 4 C-1.51582826 8.66283606 -4.03648545 11.72210402 -10 13 C-9.61328125 12.56429687 -9.2265625 12.12859375 -8.828125 11.6796875 C-5.56015499 7.94255348 -2.65859411 4.1923984 0 0 Z " fill="#160E06" transform="translate(298,201)"/>
<path d="M0 0 C2 2 4 4 6 6 C6.33 4.02 6.66 2.04 7 0 C7.33 0 7.66 0 8 0 C8 3.63 8 7.26 8 11 C6 9 4 7 2 5 C1.67 6.98 1.34 8.96 1 11 C0.67 11 0.34 11 0 11 C0 7.37 0 3.74 0 0 Z " fill="#D7A648" transform="translate(259,287)"/>
<path d="M0 0 C1.98 0 3.96 0 6 0 C4.68 0.33 3.36 0.66 2 1 C2 2.65 2 4.3 2 6 C3.32 6 4.64 6 6 6 C6 6.66 6 7.32 6 8 C4.68 8 3.36 8 2 8 C2 8.66 2 9.32 2 10 C3.32 10.33 4.64 10.66 6 11 C4.02 11 2.04 11 0 11 C0 7.37 0 3.74 0 0 Z " fill="#BA903E" transform="translate(246,287)"/>
<path d="M0 0 C4.54075781 4.14010271 7.71842138 8.82390176 11 14 C8.19764507 13.63420588 7.10644352 13.10665987 5.078125 11.07421875 C4.17320312 9.89279297 4.17320312 9.89279297 3.25 8.6875 C2.32960937 7.51767578 2.32960937 7.51767578 1.390625 6.32421875 C0 4 0 4 0 0 Z " fill="#777149" transform="translate(148,318)"/>
<path d="M0 0 C0.66 0.33 1.32 0.66 2 1 C0.50871999 4.79598549 -1.65733441 6.71720399 -5 9 C-5.99 9 -6.98 9 -8 9 C-8 7.35 -8 5.7 -8 4 C-7.34 3.67 -6.68 3.34 -6 3 C-6 3.66 -6 4.32 -6 5 C-5.34 5 -4.68 5 -4 5 C-3.67 4.01 -3.34 3.02 -3 2 C-2.01 1.34 -1.02 0.68 0 0 Z " fill="#E0AD4B" transform="translate(323,265)"/>
<path d="M0 0 C2.9375 2 2.9375 2 5 4 C4.01 4.495 4.01 4.495 3 5 C1.88625 4.5359375 1.88625 4.5359375 0.75 4.0625 C-4.58303674 2.00200853 -8.78110397 3.01184913 -14 5 C-9.81755444 0.39930989 -6.2503871 -0.65793548 0 0 Z " fill="#140D06" transform="translate(301,214)"/>
<path d="M0 0 C-2.48952921 2.66735273 -4.63408134 4.55746343 -8 6 C-8.33 5.34 -8.66 4.68 -9 4 C-11.31 5.32 -13.62 6.64 -16 8 C-14.77996151 4.33988453 -13.21797862 3.68940214 -9.9140625 1.921875 C-2.90644491 -1.45322245 -2.90644491 -1.45322245 0 0 Z " fill="#6A4B23" transform="translate(294,213)"/>
<path d="M0 0 C0.66 0.66 1.32 1.32 2 2 C1.34 2.66 0.68 3.32 0 4 C2.475 5.98 2.475 5.98 5 8 C2.69 8.33 0.38 8.66 -2 9 C-3.4606285 6.35261084 -4 5.10551666 -4 2 C-2.68 1.34 -1.36 0.68 0 0 Z " fill="#F2DD71" transform="translate(365,202)"/>
<path d="M0 0 C14.34798206 -1.0735426 14.34798206 -1.0735426 18.3984375 1.55859375 C19.84595587 3.31326845 21.0007434 4.95985111 22 7 C21.34 7.66 20.68 8.32 20 9 C18.76302083 7.47005208 17.52604167 5.94010417 16.2890625 4.41015625 C13.50707341 1.36682879 10.30266797 1.70704584 6.375 1.4375 C5.18648438 1.35371094 3.99796875 1.26992187 2.7734375 1.18359375 C1.40058594 1.09271484 1.40058594 1.09271484 0 1 C0 0.67 0 0.34 0 0 Z " fill="#221B0D" transform="translate(318,207)"/>
<path d="M0 0 C0.33 0.66 0.66 1.32 1 2 C-0.64122707 4.52496473 -1.39614655 5.58107412 -4 7 C-8.69340356 7.45179989 -13.2988206 7.28626938 -18 7 C-17.67 6.34 -17.34 5.68 -17 5 C-16.02160156 5.06960937 -16.02160156 5.06960937 -15.0234375 5.140625 C-8.90899792 5.39313873 -5.70171033 4.97837028 -1 1 C-0.67 0.67 -0.34 0.34 0 0 Z " fill="#2E2814" transform="translate(353,198)"/>
<path d="M0 0 C2.475 0.495 2.475 0.495 5 1 C6.34382872 7.23047859 6.34382872 7.23047859 4.6875 10.9375 C3.8521875 11.9584375 3.8521875 11.9584375 3 13 C2.34 13 1.68 13 1 13 C1.144375 12.319375 1.28875 11.63875 1.4375 10.9375 C2.06945909 7.63726918 2.54313941 4.32855574 3 1 C2.01 0.67 1.02 0.34 0 0 Z " fill="#DAA949" transform="translate(214,247)"/>
<path d="M0 0 C0.66 0.33 1.32 0.66 2 1 C0.73168307 1.81642254 -0.53975931 2.62799105 -1.8125 3.4375 C-2.87404297 4.11619141 -2.87404297 4.11619141 -3.95703125 4.80859375 C-6 6 -6 6 -9 7 C-12 5 -12 5 -12.6875 2.875 C-12.790625 2.25625 -12.89375 1.6375 -13 1 C-12.01 1.33 -11.02 1.66 -10 2 C-4.66704568 2.343491 -4.66704568 2.343491 0 0 Z " fill="#494322" transform="translate(387,207)"/>
<path d="M0 0 C2.14909962 2.76854598 4.01778828 5.57834526 5.75 8.625 C6.19859375 9.40101563 6.6471875 10.17703125 7.109375 10.9765625 C7.40328125 11.64429688 7.6971875 12.31203125 8 13 C7.67 13.66 7.34 14.32 7 15 C2.81888282 11.56551089 0.60455808 7.09914778 -1 2 C-0.67 1.34 -0.34 0.68 0 0 Z " fill="#776C3B" transform="translate(139,301)"/>
<path d="M0 0 C2.475 0.495 2.475 0.495 5 1 C5 2.65 5 4.3 5 6 C3.35 6.33 1.7 6.66 0 7 C0 4.69 0 2.38 0 0 Z " fill="#070502" transform="translate(307,289)"/>
<path d="M0 0 C0 6.6 0 13.2 0 20 C-0.33 20 -0.66 20 -1 20 C-1.33 17.03 -1.66 14.06 -2 11 C-2.33 11 -2.66 11 -3 11 C-3 7.7 -3 4.4 -3 1 C-1 0 -1 0 0 0 Z " fill="#6F5A21" transform="translate(127,235)"/>
<path d="M0 0 C0.66 0.33 1.32 0.66 2 1 C1.195625 1.763125 0.39125 2.52625 -0.4375 3.3125 C-3.16799024 5.79430898 -3.16799024 5.79430898 -4 9 C-6.0625 9.6875 -6.0625 9.6875 -8 10 C-7.52723148 5.74508335 -5.07452523 3.77457155 -2 1 C-1.34 0.67 -0.68 0.34 0 0 Z " fill="#AD8741" transform="translate(285,216)"/>
<path d="M0 0 C2.52475462 2.52475462 3.04307871 4.73497997 4.125 8.125 C4.47820312 9.22070312 4.83140625 10.31640625 5.1953125 11.4453125 C5.46085938 12.28835938 5.72640625 13.13140625 6 14 C5.01 14.33 4.02 14.66 3 15 C2.491217 13.44033782 1.99336531 11.87710759 1.5 10.3125 C1.2215625 9.44238281 0.943125 8.57226562 0.65625 7.67578125 C0.00149195 5.00608323 -0.11831495 2.73603316 0 0 Z " fill="#0F0D06" transform="translate(143,273)"/>
<path d="M0 0 C0 0.66 0 1.32 0 2 C-4.22949995 4.41685712 -7.12335991 5.34833144 -12 5 C-8.9213239 0.38198585 -5.38443111 0 0 0 Z " fill="#DCAA49" transform="translate(300,275)"/>
<path d="M0 0 C1.32 0.33 2.64 0.66 4 1 C1.89851796 4.98175544 -0.36905358 7.35039045 -4 10 C-3.46602057 6.15534812 -2.45430332 3.98784751 0 1 C0 0.67 0 0.34 0 0 Z " fill="#856423" transform="translate(347,330)"/>
<path d="M0 0 C1.32 0.33 2.64 0.66 4 1 C1.69 3.31 -0.62 5.62 -3 8 C-3.99 7.67 -4.98 7.34 -6 7 C-4.02 4.69 -2.04 2.38 0 0 Z " fill="#6C541E" transform="translate(172,165)"/>
<path d="M0 0 C0.99 0.33 1.98 0.66 3 1 C1.7508258 4.45925163 0.32472205 7.14693203 -2 10 C-2.66 9.67 -3.32 9.34 -4 9 C-2.80100302 5.9168649 -1.52299523 2.93720508 0 0 Z " fill="#D1A246" transform="translate(325,247)"/>
<path d="M0 0 C0.66 0 1.32 0 2 0 C2.69965443 1.26418246 3.38434763 2.53665402 4.0625 3.8125 C4.63677734 4.87404297 4.63677734 4.87404297 5.22265625 5.95703125 C6 8 6 8 5 11 C2.25722422 7.80009492 0.3697164 4.99500618 -1 1 C-0.67 0.67 -0.34 0.34 0 0 Z " fill="#88793C" transform="translate(149,284)"/>
<path d="M0 0 C7.98448519 -0.78279267 7.98448519 -0.78279267 12 2.3125 C14 5 14 5 15 8 C12 7 12 7 9.75 4.5 C6.45521344 1.50473949 4.3683679 1.25696282 0 1 C0 0.67 0 0.34 0 0 Z " fill="#242010" transform="translate(338,207)"/>
<path d="M0 0 C0.66 0.66 1.32 1.32 2 2 C0.04350603 2.83764268 -1.91525556 3.66999059 -3.875 4.5 C-5.51082031 5.19609375 -5.51082031 5.19609375 -7.1796875 5.90625 C-10 7 -10 7 -12 7 C-12 6.34 -12 5.68 -12 5 C-8.04 3.35 -4.08 1.7 0 0 Z " fill="#4B3914" transform="translate(209,127)"/>
<path d="M0 0 C0 0.33 0 0.66 0 1 C-5.71665962 2.38585688 -10.75855019 2.90172167 -16 0 C-10.39436958 -0.82622671 -5.57710648 -1.06795656 0 0 Z " fill="#67511E" transform="translate(280,374)"/>
<path d="M0 0 C0.66 0.33 1.32 0.66 2 1 C0.19587357 4.26460973 -0.83394693 5.88929795 -4 8 C-4.99 7.67 -5.98 7.34 -7 7 C-4.66666667 4.66666667 -2.33333333 2.33333333 0 0 Z " fill="#241B0A" transform="translate(332,340)"/>
<path d="M0 0 C1.97000947 3.51787406 3.14115035 7.06360577 4 11 C3.01 12.485 3.01 12.485 2 14 C1.47061343 12.04396149 0.95173199 10.08507711 0.4375 8.125 C0.14746094 7.03445313 -0.14257812 5.94390625 -0.44140625 4.8203125 C-1 2 -1 2 0 0 Z " fill="#B59B3F" transform="translate(131,277)"/>
<path d="M0 0 C2.97 0.495 2.97 0.495 6 1 C5.67 1.99 5.34 2.98 5 4 C1.06329512 5.31223496 -1.12488144 4.24296256 -5 3 C-5 2.67 -5 2.34 -5 2 C-3.35 2 -1.7 2 0 2 C0 1.34 0 0.68 0 0 Z " fill="#967D32" transform="translate(225,363)"/>
<path d="M0 0 C3.49734228 0.38859359 6.65788261 0.88596087 10 2 C10 2.66 10 3.32 10 4 C8.741875 3.87625 7.48375 3.7525 6.1875 3.625 C5.12595703 3.52058594 5.12595703 3.52058594 4.04296875 3.4140625 C2 3 2 3 -1 1 C-0.67 0.67 -0.34 0.34 0 0 Z " fill="#EBC750" transform="translate(215,361)"/>
<path d="M0 0 C3.28788824 3.11016455 5.83735988 6.01618925 8 10 C7.01 10 6.02 10 5 10 C3.61328125 8.57421875 3.61328125 8.57421875 2.3125 6.6875 C1.87550781 6.07261719 1.43851562 5.45773438 0.98828125 4.82421875 C0 3 0 3 0 0 Z " fill="#E6DD92" transform="translate(338,171)"/>
<path d="M0 0 C1.32 0.33 2.64 0.66 4 1 C4.33 2.98 4.66 4.96 5 7 C4.34 7 3.68 7 3 7 C3 6.01 3 5.02 3 4 C1.35 4 -0.3 4 -2 4 C-1.34 2.68 -0.68 1.36 0 0 Z " fill="#CE9F44" transform="translate(325,264)"/>
<path d="M0 0 C0 0.66 0 1.32 0 2 C-3.63 2.33 -7.26 2.66 -11 3 C-6.577168 -0.317124 -5.28089024 -0.30466674 0 0 Z " fill="#342B11" transform="translate(258,355)"/>
<path d="M0 0 C0.33 0.99 0.66 1.98 1 3 C-1.31 3.33 -3.62 3.66 -6 4 C-6.33 3.01 -6.66 2.02 -7 1 C-4.53721199 -0.231394 -2.7204945 -0.07159196 0 0 Z " fill="#C09440" transform="translate(223,266)"/>
<path d="M0 0 C3 3 3 3 3.07421875 5.04296875 C2.71614583 7.02864583 2.35807292 9.01432292 2 11 C1.01 10.67 0.02 10.34 -1 10 C-0.67 6.7 -0.34 3.4 0 0 Z " fill="#292110" transform="translate(275,208)"/>
<path d="M0 0 C0 0.99 0 1.98 0 3 C-1.98 3.66 -3.96 4.32 -6 5 C-6.66 4.34 -7.32 3.68 -8 3 C-2.25 0 -2.25 0 0 0 Z " fill="#513E17" transform="translate(315,353)"/>
<path d="M0 0 C7.57142857 4.14285714 7.57142857 4.14285714 10 7 C6.65580848 7 5.93159679 6.52480606 3.3125 4.625 C2.68988281 4.18414062 2.06726563 3.74328125 1.42578125 3.2890625 C0.95527344 2.86367188 0.48476562 2.43828125 0 2 C0 1.34 0 0.68 0 0 Z " fill="#8E8551" transform="translate(179,324)"/>
<path d="M0 0 C0.99 0 1.98 0 3 0 C2.1875 2.9375 2.1875 2.9375 1 6 C0.01 6.33 -0.98 6.66 -2 7 C-1.125 1.125 -1.125 1.125 0 0 Z " fill="#CFA045" transform="translate(247,266)"/>
<path d="M0 0 C2.97 0.33 5.94 0.66 9 1 C7 3 7 3 5.0546875 3.1953125 C3.03645833 3.13020833 1.01822917 3.06510417 -1 3 C-0.67 2.01 -0.34 1.02 0 0 Z " fill="#CEAE47" transform="translate(221,354)"/>
<path d="M0 0 C1.32 0.33 2.64 0.66 4 1 C4 2.32 4 3.64 4 5 C2.68 5 1.36 5 0 5 C0 3.35 0 1.7 0 0 Z " fill="#110D05" transform="translate(234,288)"/>
<path d="M0 0 C2.3125 0.8125 2.3125 0.8125 4 2 C-0.43076923 4.09230769 -0.43076923 4.09230769 -3.3125 3.625 C-3.869375 3.41875 -4.42625 3.2125 -5 3 C-2.75 1.375 -2.75 1.375 0 0 Z " fill="#231A09" transform="translate(312,361)"/>
<path d="M0 0 C0.66 0.33 1.32 0.66 2 1 C-0.75 3.0625 -0.75 3.0625 -4 5 C-6.203125 4.62109375 -6.203125 4.62109375 -8 4 C-6.71349294 3.30289269 -5.42059335 2.61757124 -4.125 1.9375 C-3.40570313 1.55464844 -2.68640625 1.17179688 -1.9453125 0.77734375 C-1.30335938 0.52082031 -0.66140625 0.26429688 0 0 Z " fill="#2E240D" transform="translate(206,143)"/>
</svg>
